<?xml version="1.0" encoding="UTF-8" standalone="no"?>
<!-- Created with Inkscape (http://www.inkscape.org/) -->

<svg
   xmlns:dc="http://purl.org/dc/elements/1.1/"
   xmlns:cc="http://creativecommons.org/ns#"
   xmlns:rdf="http://www.w3.org/1999/02/22-rdf-syntax-ns#"
   xmlns:svg="http://www.w3.org/2000/svg"
   xmlns="http://www.w3.org/2000/svg"
   xmlns:sodipodi="http://sodipodi.sourceforge.net/DTD/sodipodi-0.dtd"
   xmlns:inkscape="http://www.inkscape.org/namespaces/inkscape"
   version="1.1"
   id="svg3753"
   width="91.199997"
   height="137.28"
   viewBox="0 0 91.199997 137.28"
   sodipodi:docname="kukulkan.svg"
   inkscape:version="0.92.2 5c3e80d, 2017-08-06">
  <metadata
     id="metadata3759">
    <rdf:RDF>
      <cc:Work
         rdf:about="">
        <dc:format>image/svg+xml</dc:format>
        <dc:type
           rdf:resource="http://purl.org/dc/dcmitype/StillImage" />
        <dc:title></dc:title>
      </cc:Work>
    </rdf:RDF>
  </metadata>
  <defs
     id="defs3757" />
  <sodipodi:namedview
     pagecolor="#ffffff"
     bordercolor="#666666"
     borderopacity="1"
     objecttolerance="10"
     gridtolerance="10"
     guidetolerance="10"
     inkscape:pageopacity="0"
     inkscape:pageshadow="2"
     inkscape:window-width="1920"
     inkscape:window-height="1017"
     id="namedview3755"
     showgrid="false"
     inkscape:zoom="11.313709"
     inkscape:cx="48.300489"
     inkscape:cy="98.815596"
     inkscape:window-x="0"
     inkscape:window-y="0"
     inkscape:window-maximized="1"
     inkscape:current-layer="svg3753" />
  <path
     style="fill:#000000;stroke-width:0.47999999"
     d="m 40.899566,134.36346 c -4.190986,-1.65927 -6.150039,-5.86005 -5.780746,-12.39562 l 0.188187,-3.33044 -1.393504,-0.2787 c -0.766427,-0.15329 -1.788686,-0.2787 -2.271686,-0.2787 -0.776378,0 -0.745467,0.13272 0.266641,1.14482 2.735212,2.73521 2.721188,8.27272 -0.02866,11.31647 -2.274548,2.51765 -3.862728,3.07472 -7.935226,2.78333 -4.424517,-0.31657 -6.777128,-1.87758 -8.804653,-5.8421 -1.227002,-2.3992 -1.424501,-3.30064 -1.378937,-6.29385 0.09244,-6.0729 2.210337,-10.23295 6.243059,-12.26289 1.273776,-0.64118 2.396733,-1.21056 2.495461,-1.26528 0.09873,-0.0547 -0.299732,-0.91175 -0.885466,-1.9045 -1.850243,-3.13593 -1.77202,-7.298966 0.230667,-12.276 0.185902,-0.462 0.152894,-0.839189 -0.07335,-0.8382 -0.226245,9.6e-4 -0.811457,0.974698 -1.300472,2.163797 -1.17204,2.849961 -2.574071,3.869736 -5.849553,4.254705 -5.0663035,0.595445 -5.9608041,1.684858 -5.9760465,7.278208 -0.00291,1.06618 -0.4372848,2.78585 -0.9652848,3.82149 -0.5279999,1.03564 -0.9599999,2.39151 -0.9599999,3.01305 0,1.49914 -0.8302382,2.98695 -1.6668019,2.98695 -0.4709462,0 -0.6649737,-0.58343 -0.6462088,-1.9431 0.014749,-1.0687 -0.098225,-2.06814 -0.2510539,-2.22096 -0.1528289,-0.15283 0.037565,-1.03282 0.423097,-1.95553 0.8363065,-2.00156 0.9117543,-4.51762 0.1580677,-5.27131 C 3.9816671,104.01367 4.9601374,97.629034 6.0089537,96.470107 6.7512895,95.649835 6.7300649,95.494354 5.6813581,94.070328 4.657295,92.679763 4.5633658,92.083123 4.5987936,87.193824 4.6415631,81.29136 5.2009841,78.93251 6.9470561,77.292158 8.0809505,76.226923 9.5612445,76.125091 11.52,76.97759 c 0.621635,0.270548 0.72,-0.654643 0.72,-6.772113 0,-6.936927 0.03141,-7.151947 1.498307,-10.25581 0.824068,-1.743681 2.272942,-4.027757 3.219719,-5.075726 l 1.721412,-1.905399 -2.739719,-0.06729 C 12.051154,52.805755 9.7450941,52.353192 9.0832063,51.555667 8.768574,51.176558 8.3316669,49.303445 8.1123012,47.393189 7.8929354,45.482935 7.5732602,43.328687 7.4019113,42.60597 7.1706948,41.630742 7.2947518,41.213511 7.8830618,40.987755 8.7030247,40.673106 10.56,41.989146 10.56,42.884904 c 0,0.272863 -0.453719,0.0091 -1.0082648,-0.58613 C 8.9971898,41.70354 8.4225141,41.337486 8.274678,41.485322 c -0.1478362,0.147836 0.089883,0.665125 0.5282644,1.149531 0.4383816,0.484406 0.7970573,1.175014 0.7970573,1.534685 0,0.432584 -0.2521349,0.338549 -0.7448539,-0.277796 C 8.1396789,42.99676 8.1232937,43.007344 8.4398407,44.16 c 0.4899216,1.783972 1.3272575,2.105334 1.8544343,0.711715 l 0.454275,-1.2009 0.505725,1.564592 c 0.391189,1.210248 0.813935,1.599885 1.86661,1.720421 2.30876,0.264364 3.575923,-2.493475 1.964062,-4.274561 -0.693211,-0.765989 -0.669864,-0.861362 0.285048,-1.16444 0.755001,-0.239627 1.389579,0.0035 2.315053,0.88706 1.076026,1.027265 1.724305,1.216573 4.154951,1.21331 1.584,-0.0021 3.204,0.02678 3.6,0.06424 0.396,0.03746 1.26,-0.07343 1.92,-0.246407 l 1.2,-0.31451 -1.195748,0.651798 c -0.657661,0.358489 -1.276766,1.078373 -1.375787,1.599742 -0.171077,0.900757 -0.134568,0.907036 0.733449,0.12613 0.607175,-0.546243 1.309939,-0.719524 2.095787,-0.516762 1.098582,0.283454 1.131317,0.242651 0.462299,-0.576243 -0.64,-0.783376 -0.64,-0.854872 0,-0.643463 1.181203,0.390181 1.186612,1.838282 0.0069,1.838282 -0.562937,0 -0.890028,0.216 -0.726867,0.48 0.523463,0.846981 2.782716,0.513267 3.950144,-0.583475 0.863828,-0.811525 1.638754,-1.041421 3.270936,-0.970385 2.125582,0.09251 3.109514,-0.568735 1.07439,-0.722036 C 36.269977,43.76 35.068374,42.958034 34.185239,42.021958 32.818827,40.573632 32.26467,40.32 30.466657,40.32 c -1.621623,0 -2.232338,-0.223206 -2.626658,-0.96 -0.282577,-0.528 -0.452177,-0.979547 -0.376888,-1.003437 0.07529,-0.02389 1.532042,-0.141043 3.237229,-0.260341 1.705188,-0.119297 3.192328,-0.308891 3.304756,-0.421319 0.112428,-0.112428 0.197855,-2.629501 0.189838,-5.593494 -0.008,-2.963994 0.14072,-5.808884 0.330526,-6.321978 0.29593,-0.799974 0.5339,-0.610738 1.670146,1.328121 1.161664,1.98223 1.283735,2.561386 0.99001,4.697024 -0.328649,2.389564 -0.313404,2.430213 0.799673,2.132268 0.624091,-0.167054 1.62071,-0.306685 2.21471,-0.31029 1.407073,-0.0085 1.434627,-1.485767 0.06234,-3.34189 -0.99974,-1.352221 -1.011214,-1.538202 -0.341365,-5.533085 0.08747,-0.521632 -0.110971,-0.980632 -0.440971,-1.02 -0.33,-0.03937 -0.898808,-0.09858 -1.264017,-0.131579 -1.255172,-0.113416 -1.239055,-1.923639 0.02599,-2.91872 l 1.192314,-0.937874 -1.199866,-3.919584 c -1.282113,-4.188255 -1.246251,-5.035724 0.232959,-5.505206 1.224052,-0.3884995 2.332623,0.562068 2.332623,2.000158 0,1.145378 1.502023,3.061226 2.4,3.061226 0.264,0 0.50211,-0.594 0.529133,-1.32 0.04841,-1.300496 0.05445,-1.297714 0.408799,0.18828 0.623527,2.614805 0.973086,3.252701 1.495928,2.729859 0.278192,-0.278192 0.347155,-1.328098 0.162916,-2.480264 C 45.526121,12.785295 45.303305,12.48 44.338651,12.48 c -0.637557,0 -1.138652,-0.28601 -1.138652,-0.649909 0,-0.35745 -0.54,-1.232579 -1.2,-1.9447305 -0.66,-0.712152 -1.2,-1.4732448 -1.2,-1.6913175 0,-0.6741619 1.370105,-1.5738969 1.898973,-1.247038 0.275565,0.1703083 0.501027,0.1011254 0.501027,-0.1537392 0,-0.2548652 0.393088,-0.3605957 0.873531,-0.2349576 0.480442,0.1256385 1.15489,-0.1105834 1.498773,-0.5249372 0.799523,-0.9633652 3.087364,-0.9736118 3.880967,-0.017381 0.544517,0.6561053 0.720216,0.6378192 1.618772,-0.1684737 1.615123,-1.4492896 2.61419,-1.6012801 3.658843,-0.5566287 C 55.252899,5.8128994 55.679998,6.483 55.679998,6.78 c 0,0.3437635 0.522269,0.4355462 1.437168,0.2525664 1.169808,-0.2339616 1.579738,-0.069845 2.203531,0.8821853 l 0.766363,1.1696189 1.365677,-1.0096868 c 2.508494,-1.854611 8.147261,-1.630607 8.147261,0.3236559 0,0.3765101 0.864,1.5399715 1.92,2.5854703 1.683633,1.666893 1.92,2.171452 1.92,4.098549 0,1.208702 -0.208484,2.197641 -0.463296,2.197641 -0.254818,0 -1.172818,-0.60937 -2.04,-1.354156 C 68.60503,13.923279 67.079071,12.96 66.238428,12.96 c -0.93839,0 -1.877745,2.396434 -1.570128,4.005637 0.255077,1.33433 2.724168,3.19297 5.41944,4.079552 1.006459,0.331063 3.573787,2.357309 6.36,5.019583 3.961973,3.785729 4.672257,4.69262 4.672257,5.965537 0,0.825616 -0.287356,1.788477 -0.638572,2.139691 -0.351212,0.351214 -0.543428,0.923998 -0.427143,1.272852 0.116285,0.348854 -0.371717,1.242951 -1.084449,1.986884 -1.074164,1.121181 -1.206687,1.519259 -0.774576,2.326661 0.720019,1.345374 0.167035,2.483603 -1.206615,2.483603 -1.400472,0 -1.455244,0.6588 -0.188645,2.269022 2.059248,2.617909 0.27972,3.512156 -2.43815,1.225218 -1.391481,-1.170853 -2.503853,-1.581517 -4.761849,-1.757974 -0.885931,-0.06923 -0.96,0.141331 -0.96,2.729027 v 2.065294 l 2.76,-0.334613 c 1.518,-0.184036 4.002,-0.218644 5.519999,-0.07691 2.682245,0.25044 2.76,0.29784 2.76,1.682496 v 1.424799 l 0.882264,-1.089552 c 1.13653,-1.403554 1.915848,-0.89796 2.297818,1.49074 0.268454,1.678844 0.453801,1.892458 1.642008,1.892458 1.800187,0 2.85791,0.449016 2.85791,1.213214 0,0.586287 -1.650595,1.159522 -4.191033,1.4555 -0.589071,0.06863 -1.414498,0.468244 -1.834287,0.888033 -0.69767,0.697671 -0.622824,0.763253 0.871032,0.763253 1.982611,0 2.385864,0.334627 1.776154,1.473888 -0.788146,1.472659 -4.307669,1.694443 -7.287816,0.45924 -2.155205,-0.893285 -2.959814,-0.991315 -5.353089,-0.652214 -2.737277,0.38784 -2.849967,0.462768 -3.999384,2.659257 -0.650506,1.243095 -1.043731,2.485095 -0.873831,2.76 0.169901,0.274906 1.145453,0.499829 2.167896,0.499829 1.51825,0 2.047191,0.264302 2.88577,1.441982 0.893448,1.25473 0.928857,1.479557 0.272683,1.731356 -0.414754,0.159153 -1.041149,0.179217 -1.39199,0.04459 -0.350847,-0.134631 -2.240847,-0.0337 -4.2,0.224308 -1.959159,0.258 -4.360517,0.548544 -5.336357,0.645653 -0.97584,0.09711 -2.765385,0.513063 -3.976776,0.924336 -1.211385,0.411279 -3.248764,0.747778 -4.527513,0.747778 -2.088648,0 -2.378539,0.134179 -2.851766,1.32 -0.797501,1.998393 -1.484828,5.423117 -1.497956,7.463837 -0.01798,2.793561 -1.11744,4.460683 -3.481636,5.279217 l -2.050099,0.709791 1.802374,0.781012 c 1.770397,0.767156 4.304406,3.674914 5.269005,6.046143 0.268483,0.66 0.676492,1.632 0.906691,2.16 0.601891,1.380557 1.243238,8.185312 1.063137,11.279992 -0.221529,3.80663 -1.069291,9.08611 -1.626067,10.12645 -0.394656,0.73743 -0.127526,1.21203 1.519935,2.70042 3.140308,2.83708 4.551134,7.17536 3.355843,10.31921 -0.235992,0.62071 -1.37378,2.17201 -2.528415,3.44735 -2.074281,2.29112 -2.139326,2.32104 -5.450917,2.5073 -2.599711,0.14623 -3.921493,-0.0371 -5.892019,-0.81727 z m 6.860432,0.0365 c 0.163162,-0.264 -0.148091,-0.48 -0.691671,-0.48 -0.543581,0 -0.988329,0.216 -0.988329,0.48 0,0.264 0.311253,0.48 0.691672,0.48 0.38042,0 0.825167,-0.216 0.988328,-0.48 z m -2.639999,-0.48 c -0.939137,-0.60692 -1.92,-0.60692 -1.92,0 0,0.264 0.594,0.47669 1.32,0.47265 1.028609,-0.006 1.161059,-0.11007 0.6,-0.47265 z m 5.120299,-0.7997 c -0.373949,-0.37395 -1.744191,0.43744 -1.47481,0.8733 0.16693,0.2701 0.55813,0.22217 0.968842,-0.11869 0.378878,-0.31444 0.606561,-0.65402 0.505968,-0.75461 z m -7.791385,0.36999 c 0.146065,-0.23633 -0.07485,-0.56033 -0.490929,-0.72 -1.321697,-0.50718 -1.791001,-0.33303 -1.157985,0.42971 0.677854,0.81676 1.260179,0.91929 1.648914,0.29029 z m 5.19421,-0.55639 c 1.974183,-0.54825 3.551794,-1.95381 4.274635,-3.80844 0.734616,-1.88483 0.59053,-4.6866 -0.311832,-6.06378 -0.64066,-0.97777 -0.691761,-1.34614 -0.226612,-1.63362 0.77578,-0.47946 0.233515,-1.90806 -0.724253,-1.90806 -0.881669,0 -0.947429,0.55563 -0.159063,1.344 0.810125,0.81012 -0.144686,0.69017 -1.267742,-0.15926 -1.247173,-0.94332 -4.063207,-0.8943 -5.150462,0.0897 -0.92654,0.8385 -1.098736,1.91217 -0.539895,3.36634 0.29461,0.76661 0.373253,0.72552 0.61383,-0.32074 0.378806,-1.64741 3.046421,-2.97861 4.705132,-2.34796 1.821537,0.69254 2.470877,1.84605 2.487873,4.41952 0.01944,2.94694 -0.600806,4.07372 -2.732875,4.96456 -3.688905,1.54132 -8.527946,-0.38631 -10.037128,-3.99829 -0.773932,-1.85228 -0.857403,-5.80227 -0.161303,-7.63315 0.271386,-0.7138 0.38543,-1.40582 0.25343,-1.53782 -0.503936,-0.50394 -1.332604,2.65494 -1.420027,5.41314 -0.14647,4.62115 1.291393,7.18543 5.090688,9.0787 2.830408,1.41045 2.859568,1.41449 5.305604,0.7352 z m -23.663726,-0.94493 c 0.463695,0.24816 1.080235,0.2419 1.486466,-0.0151 0.381775,-0.24153 0.910136,-0.43915 1.174136,-0.43915 0.264,0 0.156,0.20938 -0.24,0.4653 -0.43262,0.27958 -0.491824,0.46823 -0.148328,0.47265 0.31442,0.004 0.716797,-0.22747 0.894172,-0.51447 0.177376,-0.287 0.682501,-0.42768 1.122502,-0.31261 0.44,0.11506 1.072139,-0.0821 1.404752,-0.43818 0.332614,-0.35607 0.434235,-0.64882 0.225827,-0.65056 -0.208409,-0.002 0.216815,-0.396 0.944943,-0.87613 0.728128,-0.48013 1.178128,-1.01871 1,-1.19683 -0.178127,-0.17813 -0.08903,-0.32387 0.197993,-0.32387 1.447991,0 1.22643,-6.31774 -0.287111,-8.18688 -1.184717,-1.46307 -4.77743,-1.82961 -6.103021,-0.62266 -0.537336,0.48925 -0.750793,0.75732 -0.474351,0.59573 1.213232,-0.70921 3.114866,-0.90916 2.968504,-0.31213 -0.0817,0.33327 -0.05794,0.44394 0.05279,0.24594 0.833018,-1.48953 3.48133,1.37675 3.48133,3.76784 0,1.70005 -1.354056,2.91204 -2.683443,2.40191 -0.524838,-0.2014 -0.61834,0.0151 -0.393479,0.91099 0.239614,0.9547 0.05076,1.28644 -1.006647,1.76822 -1.133445,0.51644 -1.387754,0.47522 -1.968508,-0.319 -0.650226,-0.88924 -0.691414,-0.88576 -1.646116,0.13899 -1.12615,1.20878 -1.17097,1.21907 -2.413362,0.55416 -0.542671,-0.29043 -0.928445,-1.00191 -0.928445,-1.71234 0,-1.03884 -0.156936,-1.16722 -1.08,-0.88349 -1.478509,0.45447 -1.544858,0.56342 -0.851748,1.39856 0.332778,0.40098 0.491837,1.16198 0.353462,1.69113 -0.29139,1.11427 0.362182,1.65951 2.058286,1.71709 0.776991,0.0263 1.145613,0.28136 1.045714,0.72334 -0.120523,0.53323 -0.02566,0.55622 0.433534,0.10506 0.375642,-0.36906 0.873818,-0.42446 1.38015,-0.15349 z M 39.995999,131.748 c 0.0462,-0.2574 -0.402,-0.68122 -0.996,-0.94182 -0.594,-0.2606 -1.08,-0.8546 -1.08,-1.32 0,-0.4654 -0.324,-0.84618 -0.72,-0.84618 -1.031889,0 -0.896039,0.56244 0.560519,2.32063 1.230695,1.48555 2.057873,1.77689 2.235481,0.78737 z m 12.233999,-0.198 c 0.12,-0.36 -0.06,-0.54 -0.42,-0.42 -0.346497,0.1155 -0.724502,0.4935 -0.84,0.84 -0.12,0.36 0.06,0.54 0.42,0.42 0.346498,-0.1155 0.724503,-0.4935 0.84,-0.84 z m -3.304329,-1.69224 c 1.513958,-0.78291 1.954329,-1.60185 1.954329,-3.63443 0,-3.3539 -2.282035,-5.15336 -4.766738,-3.75873 -1.493947,0.83853 -1.678236,2.5754 -0.273262,2.5754 0.63979,0 0.960212,-0.32021 0.960634,-0.96 4.8e-4,-0.74643 0.320844,-0.96 1.44,-0.96 1.356533,0 1.448021,0.12067 1.589736,2.09674 0.201019,2.80295 -1.189867,4.38326 -3.857877,4.38326 -2.564289,0 -4.270686,-1.00403 -5.537657,-3.2583 -2.132294,-3.7939 -0.832309,-8.35807 2.86911,-10.07327 1.13083,-0.52401 2.408038,-1.07002 2.838241,-1.21334 1.319245,-0.43951 2.374946,-4.54278 2.665653,-10.36079 0.174658,-3.49539 0.104516,-5.361511 -0.194577,-5.176658 -0.257227,0.158971 -0.59088,2.624278 -0.741451,5.478458 -0.259575,4.92044 -1.333186,9.2439 -2.295464,9.2439 -0.219679,0 -0.08956,-0.594 0.289161,-1.32 0.378717,-0.726 0.680854,-1.536 0.671415,-1.8 -0.0094,-0.264 -0.419536,0.27591 -0.911325,1.19981 -0.491789,0.92389 -0.827267,1.78805 -0.745505,1.92034 0.08176,0.1323 -0.932954,0.77993 -2.254924,1.43918 -3.012545,1.50234 -3.834977,3.0169 -3.804361,7.00599 0.03978,5.18257 2.223554,7.87468 6.387761,7.87468 1.297507,0 2.970202,-0.31601 3.717101,-0.70224 z M 53.669998,129.63 c 0.12,-0.36 -0.06,-0.54 -0.42,-0.42 -0.346497,0.1155 -0.724502,0.4935 -0.84,0.84 -0.12,0.36 0.06,0.54 0.42,0.42 0.346498,-0.1155 0.724503,-0.4935 0.84,-0.84 z m -8.549999,-0.99 c 0,-0.264 -0.216,-0.48 -0.48,-0.48 -0.264,0 -0.642,-0.0115 -0.84,-0.0256 -0.198,-0.0141 -0.636899,-0.55408 -0.97533,-1.2 -0.639241,-1.22003 -1.291944,-1.49165 -1.760943,-0.73279 -0.150112,0.24288 0.43114,0.99649 1.291671,1.67468 1.622467,1.27865 2.764602,1.59416 2.764602,0.76369 z m 2.309999,-0.45 c 0.12,-0.36 -0.06,-0.54 -0.42,-0.42 -0.3465,0.1155 -0.7245,0.4935 -0.84,0.84 -0.12,0.36 0.06,0.54 0.42,0.42 0.3465,-0.1155 0.7245,-0.4935 0.84,-0.84 z m 6.81,-1.01833 c 0,-1.0359 -0.762643,-1.26811 -1.089293,-0.33167 -0.29278,0.83935 0.14256,1.84846 0.659588,1.52892 0.236337,-0.14607 0.429705,-0.68483 0.429705,-1.19725 z M 36.959999,127.2 c 0,-0.528 -0.216,-0.96 -0.48,-0.96 -0.264,0 -0.48,0.432 -0.48,0.96 0,0.528 0.216,0.96 0.48,0.96 0.264,0 0.48,-0.432 0.48,-0.96 z m 9.119999,-0.52 c 0,-1.16978 -1.121651,-1.00443 -1.355195,0.19978 -0.09186,0.47364 0.153005,0.80022 0.6,0.80022 0.445265,0 0.755195,-0.4104 0.755195,-1 z m 3.12,0.52 c 0.163162,-0.264 -0.04008,-0.48 -0.45167,-0.48 -0.411581,0 -0.74833,0.216 -0.74833,0.48 0,0.264 0.203252,0.48 0.451671,0.48 0.248419,0 0.585168,-0.216 0.748329,-0.48 z m -24.239999,-0.73547 c 0,-0.94106 -2.02497,-1.75028 -2.512649,-1.0041 -0.548409,0.83909 -0.437058,1.17096 0.472649,1.40869 1.594442,0.41668 2.04,0.32831 2.04,-0.40459 z m 23.351121,-1.51341 c -0.364887,-0.36489 -1.751122,1.07991 -1.751122,1.8251 0,0.33486 0.450011,0.12177 1.008265,-0.47744 0.554543,-0.59524 0.88883,-1.20168 0.742857,-1.34766 z M 26.405558,126.249 c 0.51985,0.84113 2.031131,-1.5464 1.633976,-2.58137 -0.398532,-1.03855 -0.978454,-0.99373 -2.230115,0.17237 -1.121176,1.04453 -0.846421,1.24906 0.622136,0.46311 1.227991,-0.6572 1.200527,0.096 -0.03156,0.8655 -0.528,0.32974 -0.942948,0.86769 -0.922106,1.19546 0.02649,0.41661 0.116193,0.39904 0.298105,-0.0584 0.203075,-0.51065 0.341308,-0.5231 0.629559,-0.0567 z m 17.754441,0.0193 c 0,-0.56633 -0.93617,-1.17216 -1.280001,-0.82833 -0.343829,0.34383 0.261996,1.28 0.828329,1.28 0.248419,0 0.451672,-0.20325 0.451672,-0.45167 z m 5.127892,-1.0783 c -0.153225,-0.38291 -0.266966,-0.26917 -0.289997,0.29 -0.02083,0.506 0.0926,0.7895 0.252106,0.63 0.159499,-0.1595 0.176549,-0.5735 0.03787,-0.92 z m -27.32448,0.10741 c -0.07051,-0.14157 -0.440515,-1.06741 -0.822232,-2.05741 -0.820529,-2.12808 -2.159812,-2.4281 -2.317795,-0.51924 -0.126465,1.52805 1.063397,3.00016 2.346793,2.90348 0.506788,-0.0382 0.863743,-0.18524 0.793234,-0.32683 z m 14.720969,-1.13714 c -0.1689,-0.44015 -0.499981,-0.80027 -0.735736,-0.80027 -0.501906,0 -0.579471,1.60918 -0.100645,2.088 0.539848,0.53985 1.167099,-0.4259 0.836381,-1.28773 z m 4.595619,0.66806 c 0,-0.94173 -0.811595,-1.77673 -1.275762,-1.31257 -0.376924,0.37692 0.312102,2.24424 0.828108,2.24424 0.246209,0 0.447654,-0.41925 0.447654,-0.93167 z m 12.959999,-0.29666 c 0,-0.38042 -0.324,-0.69167 -0.72,-0.69167 -0.72299,0 -0.986726,1.01328 -0.413049,1.58695 0.447955,0.44796 1.133049,-0.0934 1.133049,-0.89528 z m -11.393072,0.4614 c 0.384535,-0.38453 -0.118743,-1.63307 -0.658282,-1.63307 -0.235755,0 -0.428645,0.432 -0.428645,0.96 0,0.93561 0.509121,1.25088 1.086927,0.67307 z m -24.606927,-1.11381 c 0,-1.41585 -0.515011,-2.43926 -1.227503,-2.43926 -2.179305,0 -1.347198,-5.7042 0.839175,-5.75265 0.18242,-0.004 0.4571,0.1956 0.610402,0.44364 0.457291,0.73992 3.575077,-1.54364 3.59761,-2.63499 0.01117,-0.5412 0.279516,-1.2432 0.596316,-1.56 1.333576,-1.33357 5.177003,-0.10097 4.575205,1.46729 -0.189861,0.49477 0.06411,0.83569 0.76201,1.02286 1.541536,0.41343 1.631798,0.38188 1.905865,-0.66615 0.199683,-0.76359 0.01473,-0.96 -0.904018,-0.96 -0.667294,0 -1.155062,-0.28236 -1.155062,-0.66864 0,-0.36776 -0.350335,-0.80309 -0.778521,-0.9674 -0.586554,-0.22508 -0.704647,-0.66812 -0.478922,-1.79674 l 0.2996,-1.498 -2.169351,0.29734 c -5.549197,0.7606 -9.401724,5.08453 -10.110286,11.34739 -0.300587,2.65685 -0.248349,3.00635 0.411499,2.75314 0.752839,-0.28889 1.886158,0.6214 1.745981,1.40239 -0.148371,0.82663 0.05592,1.13052 0.76,1.13052 0.396,0 0.72,-0.41434 0.72,-0.92074 z m 5.137883,-0.53088 c -0.139746,-0.53439 -0.05364,-1.69754 0.191336,-2.5848 0.432394,-1.566 1.429089,-2.26849 4.030781,-2.84098 0.528,-0.11618 0.0278,-0.2363 -1.111556,-0.26692 -2.060285,-0.0554 -3.847776,0.56779 -4.521093,1.57618 -0.628374,0.94107 -0.388143,3.30957 0.427044,4.21034 1.027526,1.13541 1.298185,1.10959 0.983488,-0.0938 z m 26.062116,0.75995 c 0,-0.11642 -0.216,-0.34517 -0.48,-0.50833 -0.264,-0.16316 -0.48,-0.0679 -0.48,0.21167 0,0.27958 0.216,0.50833 0.48,0.50833 0.264,0 0.48,-0.0952 0.48,-0.21167 z m 3.84,-1.44 c 0,-0.77475 -0.679824,-1.34851 -1.099977,-0.92835 -0.374583,0.37458 0.141528,1.62002 0.671332,1.62002 0.235752,0 0.428645,-0.31125 0.428645,-0.69167 z m -10.559999,-0.31969 c 0,-0.29224 -0.324,-0.40702 -0.72,-0.25506 -0.438582,0.1683 -0.72,9.6e-4 -0.72,-0.42864 0,-0.38772 -0.324,-0.70494 -0.72,-0.70494 -0.4,0 -0.72,0.42667 -0.72,0.96 0,0.74667 0.32,0.96 1.44,0.96 0.792,0 1.44,-0.23911 1.44,-0.53136 z m -6.24,-1.17697 c 0,-0.69665 -0.207764,-1.09992 -0.48,-0.93167 -0.264,0.16316 -0.48,0.71591 -0.48,1.22833 0,0.51242 0.216,0.93167 0.48,0.93167 0.264,0 0.48,-0.55275 0.48,-1.22833 z M 26.939561,120.352 c -0.474055,-0.47053 -0.52919,-0.41539 -0.268701,0.2687 0.180255,0.47339 0.448652,0.73979 0.596438,0.592 0.147785,-0.14779 3.04e-4,-0.5351 -0.327737,-0.8607 z m 17.599136,-0.86767 c 1.129263,-0.11802 2.717422,-0.50045 2.920155,-0.70318 0.130431,-0.13043 0.01766,-0.45663 -0.250589,-0.72489 -0.548957,-0.54895 -2.088264,-0.1189 -2.088264,0.58342 0,0.25134 -0.232544,0.31326 -0.516764,0.1376 -0.580251,-0.35862 -2.363236,1.34132 -2.363236,2.25316 0,0.32482 0.440414,0.11785 0.978698,-0.45993 0.538284,-0.57778 1.132284,-1.06656 1.32,-1.08618 z m -24.059948,0.0694 c -0.154687,-0.77344 -0.08061,-1.47544 0.164618,-1.56 0.267876,-0.0924 0.25675,-0.44118 -0.02787,-0.87375 -0.409585,-0.6225 -0.570009,-0.59382 -1.184618,0.21174 -0.390981,0.51246 -0.710877,1.53846 -0.710877,2.28 0,1.0547 0.222091,1.34826 1.02,1.34826 0.871893,0 0.979162,-0.20419 0.73875,-1.40625 z m 22.423783,-0.80587 c 1.514401,-1.82142 1.440413,-2.49645 -0.178652,-1.62996 -0.623228,0.33354 -0.929705,0.8388 -0.766608,1.26382 0.167822,0.43734 0.06976,0.5833 -0.256437,0.38169 -0.290492,-0.17953 -0.716711,-0.0288 -0.947152,0.33507 -1.286867,2.03172 0.396436,1.75706 2.148849,-0.35062 z m -5.536692,-0.40293 c 0.106078,-0.54721 -0.0669,-0.77801 -0.48,-0.64045 -0.355212,0.11828 -0.72047,0.60003 -0.811683,1.07055 -0.106077,0.54721 0.0669,0.77801 0.48,0.64045 0.355213,-0.11828 0.720471,-0.60003 0.811683,-1.07055 z m 12.219512,0.46163 c 0.05206,-0.26039 -0.283354,-0.54623 -0.745354,-0.6352 -0.525408,-0.10119 -0.84,0.13424 -0.84,0.62862 0,0.8351 1.418544,0.84098 1.585354,0.007 z M 17.819562,117.952 c -0.474056,-0.47053 -0.529191,-0.41539 -0.268702,0.2687 0.180255,0.47339 0.448652,0.73979 0.596438,0.592 0.147786,-0.14779 3.04e-4,-0.5351 -0.327736,-0.8607 z m 29.220436,-1.28367 c 0,-0.68954 -0.785962,-1.02498 -1.636683,-0.69853 -1.171977,0.44973 -0.906037,1.1502 0.436683,1.1502 0.66,0 1.2,-0.20325 1.2,-0.45167 z m 2.100552,-0.7665 c 0.164146,-0.42776 -0.02966,-0.85825 -0.46091,-1.02374 -0.896331,-0.34395 -1.877146,0.50929 -1.42549,1.24009 0.471014,0.76211 1.558805,0.63736 1.8864,-0.21635 z m -24.71119,-0.55549 c 2.23961,-0.18385 2.529193,-0.62634 0.409897,-0.62634 -2.008653,0 -3.239258,0.39498 -3.239258,1.03968 0,0.25134 0.26787,0.29142 0.595267,0.0891 0.327396,-0.20234 1.332738,-0.42843 2.234094,-0.50242 z M 33.668327,115.2 c 0.25758,0 0.334833,0.216 0.171672,0.48 -0.163161,0.264 -0.06791,0.48 0.211672,0.48 0.27958,0 0.508328,-0.21189 0.508328,-0.47086 0,-0.25897 0.594,-0.60304 1.32,-0.76461 2.921066,-0.65007 3.011565,-0.71132 2.72683,-1.8458 -0.34762,-1.38502 2.145255,-3.68691 3.585064,-3.31039 0.756596,0.19786 1.035998,-0.11077 1.44997,-1.60163 0.735464,-2.64867 0.644766,-3.42183 -0.441864,-3.76671 -0.665322,-0.21117 -0.96,-0.72625 -0.96,-1.67806 0,-1.59659 1.154381,-2.961414 2.17389,-2.57019 0.555927,0.21333 0.70611,-0.180844 0.70611,-1.853275 0,-4.703304 -2.784458,-10.012046 -4.503196,-8.585621 -0.470927,0.390836 -0.79051,0.4133 -1.002399,0.07046 C 39.44332,89.506488 39.10009,89.28 38.851671,89.28 c -0.24842,0 -0.07367,0.38988 0.388328,0.8664 0.462,0.476525 0.973613,0.671707 1.136918,0.433742 0.163304,-0.237964 0.530068,0.236156 0.81503,1.0536 0.284962,0.81744 0.853349,1.486258 1.263082,1.486258 1.09048,0 0.931039,2.052874 -0.21503,2.768606 -0.982358,0.613493 -1.345102,2.511394 -0.48,2.511394 0.712397,0 0.581366,1.71833 -0.179161,2.34951 -0.362539,0.30088 -1.010539,0.41222 -1.44,0.24741 -0.547973,-0.21027 -0.781638,-0.0338 -0.783516,0.59172 -0.0054,1.79619 -1.064612,4.64229 -2.120753,5.69843 -0.596448,0.59644 -1.064677,1.59485 -1.04051,2.21869 0.03238,0.8358 -0.247606,1.17556 -1.06408,1.2913 -0.846424,0.11997 -0.986124,0.30393 -0.591718,0.77916 0.684435,0.82469 0.181386,2.02954 -0.973466,2.33154 -0.599533,0.15679 -0.913415,0.63959 -0.888902,1.3673 0.02084,0.61872 0.146843,0.85494 0.280001,0.52494 0.133158,-0.33 0.452852,-0.6 0.710433,-0.6 z m 4.251672,0.18864 c 0,-0.10375 -0.324,-0.18864 -0.72,-0.18864 -0.396,0 -0.72,0.20922 -0.72,0.46494 0,0.25571 0.324,0.3406 0.72,0.18864 0.396,-0.15196 0.72,-0.36118 0.72,-0.46494 z M 6.5078091,109.25463 c 0.8218545,-1.17336 0.9166943,-0.66841 0.1534353,0.81693 -0.4436865,0.86343 -0.4269201,0.94274 0.095016,0.44942 0.436596,-0.41265 0.6236424,-1.906 0.6012134,-4.8 -0.030595,-3.94777 -0.012254,-4.02739 0.3042922,-1.32098 l 0.3368505,2.88 0.080691,-2.72074 c 0.044381,-1.49641 0.2090678,-3.11641 0.3659712,-3.6 C 8.6825392,100.228 8.6433784,100.2012 8.2126293,100.8 c -0.2848612,0.396 -0.5179291,0.504 -0.5179291,0.24 0,-0.78231 0.6453715,-1.429771 1.5850334,-1.590168 C 9.763587,99.367243 10.627587,99.091478 11.199734,98.837026 12.040575,98.463077 11.917935,98.421274 10.56,98.618966 9.4910166,98.774597 9.1418642,98.713253 9.5999997,98.450299 9.9959997,98.223014 11.616,97.880866 13.2,97.689965 c 1.584,-0.190901 3.269558,-0.555024 3.745685,-0.80916 0.958835,-0.511795 2.729714,-3.182386 2.73252,-4.120805 0.0034,-1.119206 -0.781901,-0.606941 -1.471581,0.96 -0.976133,2.217758 -2.870028,2.987568 -7.406624,3.010565 -2.1120003,0.0107 -4.0876399,0.173635 -4.3903111,0.362069 -0.3026712,0.188433 -0.8016384,1.78583 -1.1088163,3.549776 -0.4855718,2.78836 -0.4608844,3.26181 0.1890528,3.62553 0.5754254,0.32202 0.6861874,0.92961 0.4810301,2.63868 -0.1465901,1.22118 -0.4820256,2.62299 -0.7454117,3.11513 -0.290148,0.54215 -0.3264907,1.78619 -0.092214,3.15653 L 5.52,115.44 5.6678093,112.84144 c 0.081295,-1.42921 0.4592947,-3.04327 0.8399998,-3.58681 z m 34.9729319,5.65401 c 0.699869,-0.26856 1.107149,-1.62864 0.487702,-1.62864 -0.624857,0 -2.128444,1.02918 -2.128444,1.45689 0,0.53187 0.55178,0.58963 1.640742,0.17175 z m 8.439257,-2.37697 c 0,-1.29112 -0.830611,-1.58736 -1.266417,-0.45167 -0.36889,0.96131 0.175488,2.29758 0.783029,1.9221 0.265862,-0.16432 0.483388,-0.82601 0.483388,-1.47043 z m -6.397155,0.43117 c -0.174436,-0.17443 0.165651,-0.55786 0.755748,-0.85205 1.357607,-0.67684 1.654213,-2.0378 0.508809,-2.33464 -0.629725,-0.16319 -0.538589,-0.24405 0.332599,-0.29507 1.101215,-0.0645 1.126145,-0.11318 0.302839,-0.59152 -1.035901,-0.60185 -1.589816,-0.0332 -2.055863,2.11044 -0.157837,0.726 -0.488724,1.32 -0.735305,1.32 -0.24658,0 -0.314833,0.216 -0.151671,0.48 0.163161,0.264 0.535908,0.48 0.828328,0.48 0.292419,0 0.388952,-0.14272 0.214516,-0.31716 z m -10.219697,-1.38777 c 0.163918,-0.42716 0.08345,-0.61983 -0.188645,-0.45167 -0.260976,0.16129 -0.474502,0.49651 -0.474502,0.74493 0,0.69045 0.344048,0.5383 0.663147,-0.29326 z M 34.559999,109.44 c 0.282577,-0.528 0.405776,-0.96 0.273776,-0.96 -0.132,0 -0.471199,0.432 -0.753776,0.96 -0.282577,0.528 -0.405777,0.96 -0.273777,0.96 0.132,0 0.4712,-0.432 0.753777,-0.96 z m 15.839999,-0.04 c 0,-1.16979 -1.121649,-1.00444 -1.355193,0.19977 -0.09186,0.47365 0.153005,0.80022 0.6,0.80022 0.445262,0 0.755193,-0.4104 0.755193,-0.99999 z m -15.923319,-2.15038 c 1.175222,-0.58628 1.66447,-1.29016 2.237153,-3.2186 0.703014,-2.3673 0.688688,-2.55652 -0.350426,-4.628066 -0.595874,-1.187937 -1.407407,-2.255126 -1.803407,-2.37155 -0.540063,-0.158779 -0.494792,0.0421 0.181144,0.803808 1.368879,1.542571 1.275878,4.531008 -0.190037,6.106488 -2.48267,2.66823 -5.862443,2.66856 -8.948509,9.6e-4 -1.75373,-1.51597 -1.832748,-1.71075 -1.786804,-4.40435 0.02644,-1.550026 0.380399,-3.601229 0.786576,-4.558229 0.735666,-1.733309 0.733884,-1.74 -0.463178,-1.74 -0.796776,0 -0.992712,0.129153 -0.581496,0.383299 0.503873,0.31141 0.506315,0.728333 0.01302,2.223029 -0.715767,2.168798 -0.848145,5.580481 -0.293668,7.568471 0.989339,3.54709 7.385959,5.73733 11.199633,3.83482 z m 12.083319,-0.15828 c 0,-0.91176 -1.095803,-1.67556 -1.633072,-1.13829 C 44.238178,106.64182 44.684775,108 45.599998,108 c 0.621915,0 0.96,-0.32 0.96,-0.90864 z m 4.32,-0.55969 c 0,-0.51242 -0.324,-0.93167 -0.72,-0.93167 -0.71196,0 -1.00643,1.47357 -0.413049,2.06695 0.500443,0.50045 1.133049,-0.13341 1.133049,-1.13528 z M 24.959999,107.136 c 0,-0.62496 -1.097518,-1.536 -1.850394,-1.536 -0.554394,0 -0.519261,0.19794 0.170394,0.96 0.892416,0.98611 1.68,1.25614 1.68,0.576 z m 21.599999,-2.016 c 0,-0.264 -0.336747,-0.48 -0.748328,-0.48 -0.41158,0 -0.614833,0.216 -0.451671,0.48 0.163161,0.264 0.499908,0.48 0.748328,0.48 0.248419,0 0.451671,-0.216 0.451671,-0.48 z m -12.923076,-1.40308 c 0.955488,-0.95549 1.403077,-1.88429 1.403077,-2.91155 0,-1.858055 -0.760021,-3.36537 -1.696888,-3.36537 -0.931594,0 -0.897726,0.803386 0.05638,1.337328 1.290344,0.722112 0.668458,3.043112 -1.08939,4.065802 -1.29427,0.75299 -1.827543,0.80994 -3.462426,0.36971 -1.062889,-0.28621 -2.264434,-0.99424 -2.670099,-1.57341 -0.936424,-1.33694 -0.956114,-5.167009 -0.03284,-6.387688 C 26.986252,94.139155 27.06158,93.6 26.375506,93.6 c -1.343217,0 -2.609775,7.37358 -1.528157,8.89655 1.098092,1.54616 3.255706,2.62345 5.254305,2.62345 1.716632,0 2.405647,-0.27346 3.535268,-1.40308 z m 4.523077,0.92308 c 0.163161,-0.264 0.06791,-0.48 -0.211672,-0.48 -0.27958,0 -0.508328,0.216 -0.508328,0.48 0,0.264 0.09525,0.48 0.211672,0.48 0.116419,0 0.345167,-0.216 0.508328,-0.48 z m -16.026,-1.578 c -0.392,-0.392 -0.534,-0.33828 -0.534,0.202 0,0.95417 0.645458,1.59963 0.884,0.884 0.1012,-0.3036 -0.0563,-0.7923 -0.35,-1.086 z m 24.905999,0.198 c 0,-0.495 0.135,-1.575 0.3,-2.4 0.256791,-1.283952 0.16035,-1.5 -0.669583,-1.5 -0.786856,0 -1.010226,0.384456 -1.185244,2.04 -0.118614,1.122 -0.128554,2.202 -0.02209,2.4 0.394686,0.73402 1.576917,0.32917 1.576917,-0.54 z m 3.84,0.18 c 0,-0.396 -0.324,-0.72 -0.72,-0.72 -0.396,0 -0.72,0.324 -0.72,0.72 0,0.396 0.324,0.72 0.72,0.72 0.396,0 0.72,-0.324 0.72,-0.72 z m -18.719999,-1.30213 c 0.548597,0.16925 0.589432,0.083 0.171532,-0.36234 -0.6868,-0.73188 -2.775794,0.22564 -2.271707,1.04127 0.223322,0.36134 0.4934,0.30241 0.853444,-0.18621 0.289702,-0.39317 0.850731,-0.61489 1.246731,-0.49272 z m -2.88,-0.12281 c 0,-0.4294 -0.281419,-0.59694 -0.72,-0.42864 -0.396,0.15196 -0.72,0.46918 -0.72,0.70494 0,0.23575 0.324,0.42864 0.72,0.42864 0.396,0 0.72,-0.31722 0.72,-0.70494 z m -7.2,-1.21506 c 0,-0.935611 -0.509121,-1.25088 -1.086927,-0.67307 -0.384535,0.38453 0.118743,1.63307 0.658282,1.63307 0.235755,0 0.428645,-0.432 0.428645,-0.96 z m 6.120224,0.12 c 0.117178,-0.35193 -0.213677,-0.6 -0.800224,-0.6 -0.589602,0 -1,0.30993 -1,0.75519 0,0.88219 1.497813,0.75306 1.800224,-0.15519 z m 22.672427,0.48 c -0.0038,-0.198 -0.208301,-0.67775 -0.453903,-1.0661 -0.553022,-0.874458 -1.201824,-0.32757 -0.81311,0.6854 0.287078,0.74811 1.280606,1.04664 1.267013,0.3807 z m -12.624757,-1.17 c -0.153228,-0.38291 -0.266967,-0.269174 -0.29,0.29 -0.02084,0.506 0.09261,0.7895 0.252106,0.63 0.1595,-0.1595 0.176553,-0.5735 0.0379,-0.92 z m 2.078481,-1.365389 c 0.851897,-2.056661 0.329942,-2.237016 -0.632582,-0.218582 -0.439044,0.920683 -0.611961,1.673971 -0.384261,1.673971 0.2277,0 0.685279,-0.654926 1.016843,-1.455389 z M 27.080741,99.548645 C 28.168436,99.131256 28.01914,97.92 26.879999,97.92 c -0.64,0 -0.96,0.320002 -0.96,0.96 0,1.057022 0.05943,1.091256 1.160742,0.668645 z m -4.868887,-1.977379 c -0.172884,-0.450528 -0.419326,-0.515794 -0.739326,-0.195792 -0.264,0.264 -0.331699,0.866462 -0.150443,1.338811 0.266526,0.694555 0.40793,0.732 0.739326,0.195792 0.225373,-0.364661 0.293072,-0.967128 0.150443,-1.338811 z m 27.977688,0.01262 c -0.22295,-0.580988 -0.441043,-0.6444 -0.840936,-0.244508 -0.399897,0.399898 -0.369244,0.745575 0.118191,1.332898 0.744489,0.897058 1.213565,0.19067 0.722745,-1.08839 z m -20.429543,0.30778 c 0,-0.248419 -0.216,-0.45167 -0.48,-0.45167 -0.264,0 -0.48,0.336749 -0.48,0.74833 0,0.41158 0.216,0.614832 0.48,0.45167 0.264,-0.163162 0.48,-0.49991 0.48,-0.74833 z M 33.058545,96.9221 c 0.454511,-0.02203 0.541561,-0.135475 0.208065,-0.271128 -0.885527,-0.360202 -2.549571,0.726034 -2.521434,1.64591 0.02068,0.676152 0.159688,0.630284 0.778546,-0.256886 0.414354,-0.594 1.105024,-1.097054 1.534823,-1.117896 z m 5.035034,1.2379 c -0.151959,-0.396 -0.46918,-0.72 -0.704935,-0.72 -0.235755,0 -0.428645,0.324 -0.428645,0.72 0,0.396 0.317221,0.72 0.704935,0.72 0.429405,0 0.596945,-0.281419 0.428645,-0.72 z m 9.252526,0.386107 c -0.518789,-0.518789 -1.746107,-0.591633 -1.746107,-0.103637 0,0.240644 0.468,0.43753 1.040001,0.43753 0.571999,0 0.889747,-0.15025 0.706106,-0.333893 z M 27.604838,96.952171 c 0.165823,-0.268305 0.52412,-0.350241 0.796217,-0.182073 0.301584,0.186388 0.282043,-0.09164 -0.05006,-0.712172 -0.643452,-1.202304 -1.728049,-1.33127 -2.141203,-0.254611 -0.500299,1.303762 0.692307,2.285904 1.395042,1.148856 z m 19.43516,-1.592169 c 0,-2.364111 -0.195026,-2.704652 -1.372592,-2.396708 -0.734674,0.19212 -0.776618,0.479156 -0.343073,2.347796 0.648254,2.79406 1.715665,2.824492 1.715665,0.04891 z M 36.959999,96.50833 c 0,-0.566333 -0.93617,-1.17216 -1.28,-0.828332 -0.34383,0.343834 0.261995,1.280002 0.828328,1.280002 0.24842,0 0.451672,-0.203251 0.451672,-0.45167 z M 30.719999,96 c 0,-0.264 -0.203252,-0.48 -0.451672,-0.48 -0.24842,0 -0.585167,0.216 -0.748328,0.48 -0.163161,0.264 0.04009,0.48 0.451672,0.48 0.41158,0 0.748328,-0.216 0.748328,-0.48 z m 19.199999,-0.21167 c 0,-0.764463 -0.870892,-1.477436 -1.291233,-1.057095 -0.394867,0.394867 0.221529,1.748765 0.796171,1.748765 0.272285,0 0.495062,-0.311251 0.495062,-0.69167 z M 23.039999,95.04 c 0,-0.528 -0.190807,-0.96 -0.424017,-0.96 -0.233209,0 -0.536987,0.432 -0.675062,0.96 -0.163163,0.623933 -0.01473,0.96 0.424017,0.96 0.371284,0 0.675062,-0.432 0.675062,-0.96 z m 12,0.48 c 0,-0.264 -0.324,-0.48 -0.72,-0.48 -0.396,0 -0.72,0.216 -0.72,0.48 0,0.264 0.324,0.48 0.72,0.48 0.396,0 0.72,-0.216 0.72,-0.48 z m 6.077895,-1.08 c -0.133159,-0.33 -0.242106,-0.06 -0.242106,0.6 0,0.66 0.108947,0.93 0.242106,0.6 0.133157,-0.33 0.133157,-0.87 0,-1.2 z m -8.477895,0.6 c 0,-0.264 -0.324,-0.48 -0.72,-0.48 -0.396,0 -0.72,0.216 -0.72,0.48 0,0.264 0.324,0.48 0.72,0.48 0.396,0 0.72,-0.216 0.72,-0.48 z M 15.632392,94.219037 c 0.45153,-0.451531 1.127312,-1.554159 1.501737,-2.450285 0.603313,-1.443931 0.582353,-1.992254 -0.184214,-4.819037 C 16.242797,84.342154 16.084479,81.876509 16.082464,73.44 c -0.0023,-9.691426 0.06332,-10.462589 1.077535,-12.661018 0.594,-1.287556 1.08,-2.524339 1.08,-2.748398 0,-0.224059 0.410508,-1.082405 0.912239,-1.907438 0.883882,-1.453426 0.909994,-1.462498 0.84,-0.291807 -0.03973,0.664536 -0.261239,1.172343 -0.492239,1.128456 -0.231,-0.04387 -0.525991,0.211181 -0.655537,0.566818 -0.184103,0.505411 -0.02806,0.535569 0.714583,0.13812 0.72715,-0.38916 0.917687,-0.917227 0.81192,-2.250226 -0.07601,-0.95796 -0.241537,-1.845077 -0.36784,-1.971384 -0.498373,-0.498369 -2.374636,1.157391 -3.894573,3.436877 -3.2805,4.919846 -4.076263,10.447037 -2.901283,20.151653 0.867098,7.161701 0.710867,10.444421 -0.56412,11.853269 -0.97219,1.074254 -3.1913205,1.138334 -4.2081429,0.121512 C 7.7198858,88.291315 7.5358361,87.772258 7.0001974,84.96 c -0.1257072,-0.66 -0.1456877,0.06231 -0.0444,1.60513 0.1307112,1.99103 0.4366536,2.996558 1.0541803,3.464736 2.0306543,1.539532 5.0483433,0.423532 6.1239863,-2.264765 0.940196,-2.349778 0.935893,-4.131855 -0.02652,-10.984378 -0.902566,-6.426374 -0.659431,-11.083579 0.806931,-15.456677 1.074042,-3.203088 2.784153,-6.345523 3.217437,-5.912236 0.144268,0.144268 -0.113616,0.677692 -0.573075,1.185388 -1.109346,1.225815 -3.009141,7.301924 -3.42084,10.940866 -0.212721,1.880203 -0.03465,5.105314 0.501806,9.08819 1.29042,9.580704 0.567997,13.38361 -2.763019,14.544812 -2.0378395,0.710395 -4.581298,-0.137693 -5.1864493,-1.729364 -1.1067662,-2.911017 -0.344988,-8.05402 1.3582583,-9.17003 1.1379086,-0.745589 1.2387379,-0.729902 2.093498,0.325685 0.493907,0.609945 0.898013,1.631846 0.898013,2.270885 0,1.338739 -1.3328355,2.073907 -1.9610941,1.081704 -0.2857511,-0.451287 -0.4266047,-0.02328 -0.4315559,1.311283 -0.0079,2.129822 0.8310834,3.245011 2.237535,2.974157 1.390933,-0.267869 2.13135,-2.294736 1.944074,-5.321837 -0.202025,-3.265503 -1.472859,-5.316327 -3.4388782,-5.54953 -2.8442212,-0.337373 -4.2988472,3.135322 -4.330591,10.338615 -0.02159,4.899288 0.3378235,5.643542 3.2359693,6.700848 2.4192309,0.88259 6.3691979,0.783288 7.3369329,-0.184445 z m 13.647607,0.325901 c 0,-0.574642 -1.353899,-1.191039 -1.748767,-0.796172 -0.420341,0.420341 0.292633,1.291234 1.057095,1.291234 0.38042,0 0.691672,-0.222778 0.691672,-0.495062 z m 6.72,-1.715103 c 0.800811,-0.491256 0.880649,-0.626256 0.24,-0.405816 -0.528,0.18168 -1.23,0.340599 -1.56,0.353155 -0.33,0.01258 -0.6,0.202824 -0.6,0.422828 0,0.575539 0.551817,0.469152 1.92,-0.370167 z m 1.92,0.290165 c 0.396,-0.255917 0.504,-0.465298 0.24,-0.465298 -0.264,0 -0.804,0.209381 -1.2,0.465298 -0.396,0.255917 -0.504,0.465298 -0.24,0.465298 0.264,0 0.804,-0.209381 1.2,-0.465298 z m 10.929998,-0.09 c -0.296674,-0.890026 -1.329999,-1.037645 -1.329999,-0.189998 0,0.417998 0.342,0.759998 0.759999,0.759998 0.418003,0 0.674501,-0.256502 0.57,-0.57 z M 35.911245,91.385146 c 0.224815,0.138945 0.408754,-0.05021 0.408754,-0.420336 0,-0.518463 -0.21488,-0.557957 -0.935999,-0.172028 -1.144529,0.612538 -2.556448,-0.538334 -2.104703,-1.715563 0.381946,-0.995333 2.551509,-0.974309 3.113646,0.03019 0.575035,1.027531 1.50755,0.441701 1.195621,-0.751118 -0.167367,-0.640013 -0.970452,-1.097688 -2.620846,-1.493616 -1.308746,-0.313959 -2.421878,-0.492499 -2.473628,-0.396749 -1.05004,1.942829 -1.269927,2.091101 -3.012056,2.031053 -2.237528,-0.07712 -3.827543,-1.663968 -3.07543,-3.069303 0.365324,-0.682612 0.281982,-0.947308 -0.366966,-1.165497 -0.461802,-0.155285 -1.379639,-1.020773 -2.039639,-1.923331 -0.930318,-1.272221 -1.444114,-1.581528 -2.286233,-1.376333 -1.574426,0.38364 -2.513767,-0.642855 -2.513767,-2.747007 0,-1.936924 1.125156,-3.559036 2.186243,-3.151857 0.469538,0.180177 0.6607,-0.679349 0.778109,-3.498639 l 0.155648,-3.7375 -1.247857,0.04622 c -1.040554,0.03854 -1.164962,0.179313 -0.748878,0.847267 0.64943,1.042545 -0.467411,2.476929 -1.681407,2.159462 -0.728706,-0.19056 -0.785536,-0.07739 -0.360221,0.717312 0.579277,1.08241 -0.152608,2.322221 -1.370843,2.322221 -0.617452,0 -0.684238,0.56101 -0.427853,3.594038 0.492138,5.821978 0.867843,7.680144 1.371053,6.780956 0.605774,-1.082458 2.180036,-0.968064 2.546006,0.185006 0.358145,1.128413 1.458017,1.270824 1.853581,0.24 0.15196,-0.396 0.58396,-0.72 0.96,-0.72 1.051094,0 1.336455,1.366886 0.539338,2.583442 -0.673161,1.027372 -0.651177,1.090838 0.365414,1.054848 0.843989,-0.02988 1.081667,0.225388 1.081667,1.16171 0,0.916531 0.428495,1.403232 1.813945,2.060342 1.634545,0.775253 1.887163,0.787124 2.554285,0.12 0.973563,-0.973564 1.786755,-0.935068 2.750822,0.13021 0.629884,0.696014 0.668859,1.000128 0.194394,1.516819 -0.326395,0.355445 0.212615,0.164515 1.1978,-0.424291 0.985185,-0.588806 1.975185,-0.956875 2.2,-0.817934 z M 40.647893,92.07 c -0.153228,-0.38291 -0.266967,-0.269174 -0.29,0.290002 -0.02084,0.505996 0.09261,0.789499 0.252106,0.63 0.159499,-0.159504 0.176552,-0.573504 0.0379,-0.920002 z m 5.672105,0.09 c 0.163162,-0.264 -0.148091,-0.48 -0.691671,-0.48 -0.543581,0 -0.988328,0.216 -0.988328,0.48 0,0.264 0.311252,0.48 0.691671,0.48 0.38042,0 0.825167,-0.216 0.988328,-0.48 z m 1.68,-0.96 c 0,-0.264 -0.336747,-0.48 -0.748328,-0.48 -0.41158,0 -0.614833,0.216 -0.451672,0.48 0.163162,0.264 0.499909,0.48 0.748329,0.48 0.248419,0 0.451671,-0.216 0.451671,-0.48 z m -1.935265,-0.36 c -0.0084,-0.198 -0.296712,-0.730483 -0.640703,-1.183296 -0.476075,-0.626683 -0.759005,-0.689731 -1.184734,-0.264 C 43.302012,90.329986 43.610439,91.2 44.879999,91.2 c 0.66,0 1.19313,-0.162 1.184734,-0.36 z M 22.079999,89.76 c 0,-0.264 -0.216,-0.48 -0.48,-0.48 -0.264,0 -0.48,0.216 -0.48,0.48 0,0.264 0.216,0.48 0.48,0.48 0.264,0 0.48,-0.216 0.48,-0.48 z m 24.959999,0.219053 c 0,-0.143525 -0.553067,-0.845525 -1.229039,-1.56 L 44.58192,87.12 l 0.869039,1.556966 c 0.766537,1.373324 1.589039,2.047292 1.589039,1.302087 z M 43.994362,89.019298 C 44.440894,87.855653 43.817825,87.645581 43.222,88.758888 42.850491,89.453059 42.843187,89.76 43.198175,89.76 c 0.281574,0 0.639858,-0.333317 0.796187,-0.740702 z m -0.903321,-1.208012 c 0.150526,-0.781617 -2.994729,-2.586355 -3.723011,-2.136249 -0.22332,0.138019 -0.478486,0.03706 -0.567034,-0.224395 -0.268438,-0.792557 -4.818652,-0.840922 -5.094665,-0.05415 -0.160977,0.458861 0.0054,0.583349 0.517161,0.386966 0.414966,-0.15924 0.834454,-0.04961 0.932195,0.24361 0.09774,0.293222 0.954241,0.551088 1.903334,0.573034 0.949093,0.02194 1.62633,0.201902 1.504972,0.399902 -0.121358,0.198 0.100259,0.36 0.492482,0.36 0.392223,0 0.805969,-0.27 0.919437,-0.6 0.113467,-0.33 0.149394,-0.221491 0.07984,0.241133 -0.238718,1.58771 2.732805,2.380843 3.035292,0.810153 z M 29.759999,86.4 c -0.282577,-0.528 -0.621777,-0.96 -0.753777,-0.96 -0.132,0 -0.0088,0.432 0.273777,0.96 0.282577,0.528 0.621777,0.96 0.753777,0.96 0.132,0 0.0088,-0.432 -0.273777,-0.96 z m -6.96,0 c -0.163161,-0.264 -0.553908,-0.476693 -0.868328,-0.472651 -0.343496,0.0043 -0.284292,0.19307 0.148328,0.472651 0.922139,0.595934 1.088307,0.595934 0.72,0 z m 10.664216,-1.745438 c 0.274456,-0.834394 -2.81713,-1.788826 -3.304985,-1.020312 -0.578883,0.911913 -0.483632,1.232457 0.440769,1.483305 1.310675,0.355675 2.667052,0.136416 2.864216,-0.462993 z M 29.652672,83.28 l 0.145707,-0.96 -0.788835,0.96 c -0.7885,0.959592 -0.788714,0.959592 -0.503781,-0.0038 0.382601,-1.293374 -2.483441,-3.658781 -3.964031,-3.271598 -1.374975,0.359563 -1.293941,0.762504 0.538267,2.676528 1.841007,1.923216 4.32233,2.248094 4.572673,0.598694 z m 16.124406,-0.170472 c 0.395589,-0.437122 1.054304,-2.876914 1.46381,-5.421763 0.814109,-5.059219 1.354752,-6.845923 2.236406,-7.390815 0.317079,-0.195964 1.975656,-0.332462 3.685723,-0.303321 1.890557,0.03221 3.642288,-0.222677 4.469261,-0.650323 0.748027,-0.386818 2.288774,-0.728712 3.423883,-0.759764 l 2.063837,-0.05646 -2.4,-0.403791 c -1.571688,-0.264427 -3.041304,-0.212707 -4.258147,0.149856 -1.622654,0.48348 -1.937554,0.445047 -2.484749,-0.303288 -0.410769,-0.561758 -0.955507,-0.752539 -1.581456,-0.553872 -0.525173,0.166685 -1.100265,0.06779 -1.277985,-0.219772 -0.230319,-0.372668 -0.516917,-0.362002 -0.997839,0.0371 -0.371092,0.307977 -1.145616,0.436814 -1.721164,0.286305 -1.826734,-0.477705 -2.294524,0.855619 -1.992928,5.680349 0.309329,4.948435 -0.254662,7.671437 -2.024582,9.774864 -1.062657,1.262899 -1.091012,1.391688 -0.258463,1.173974 0.514326,-0.1345 1.258803,-0.602188 1.654393,-1.03931 z M 9.0708679,82.20623 c 1.1861851,0.310196 1.4419141,-0.950284 0.283019,-1.394995 -0.9014688,-0.345926 -2.1563865,0.640651 -2.1465369,1.687536 0.006,0.637171 0.085447,0.657898 0.4308681,0.112397 0.2481284,-0.391853 0.8414251,-0.559546 1.4326498,-0.404938 z M 42.719999,81.182563 c 0.66,-0.477897 1.51369,-1.497475 1.897089,-2.265729 0.846261,-1.695749 0.902864,-7.672628 0.0871,-9.196901 -1.212605,-2.265773 -6.091436,-3.438235 -8.63736,-2.075698 -1.116948,0.597773 -2.466826,3.149179 -2.466826,4.662552 0,2.139845 3.463449,3.463656 4.811678,1.839139 0.505395,-0.608961 0.419345,-0.936187 -0.504897,-1.92 C 37.09774,71.364744 36.98644,71.04 37.500328,71.04 c 1.954293,0 2.51164,2.848906 0.792868,4.052784 -1.513635,1.06019 -4.971406,0.956275 -6.592615,-0.19813 -1.776384,-1.264896 -2.639511,-4.436788 -2.273603,-8.355216 0.361507,-3.871286 1.149006,-5.559734 2.961386,-6.349387 l 1.451635,-0.632477 -1.341818,-0.01877 c -3.053378,-0.04277 -4.919897,4.016108 -4.54691,9.887535 0.380744,5.993549 2.887533,8.552597 8.391322,8.566262 3.846461,0.0096 5.133181,-1.057152 5.024879,-4.165661 C 41.289855,71.599162 39.674479,69.6 37.952006,69.6 c -1.12882,0 -2.138613,1.22137 -1.780772,2.15389 0.309491,0.80652 -0.422501,1.004539 -0.89389,0.241814 -0.514363,-0.832258 0.209883,-2.226677 1.449979,-2.791704 2.424613,-1.104725 5.004234,1.017451 5.389284,4.433602 0.216872,1.924084 0.08537,2.314262 -1.219843,3.619478 -1.265441,1.265443 -1.808076,1.46256 -4.019842,1.460242 -6.864062,-0.0072 -9.69793,-3.201495 -9.620551,-10.844189 0.04435,-4.380888 1.771343,-7.908048 4.355799,-8.896176 0.894387,-0.341952 1.016695,-0.572007 0.582352,-1.09536 -0.829371,-0.999331 -2.276262,-0.379095 -4.108122,1.761024 -1.980669,2.313965 -2.338025,4.138094 -2.37772,12.137088 -0.03283,6.615139 0.426664,7.831171 3.460744,9.158779 3.665873,1.604059 11.478027,1.744776 13.550575,0.244075 z M 21.409953,78.6 c -0.386605,-0.262622 -0.386605,-0.457378 0,-0.72 0.35964,-0.244306 0.223965,-0.66852 -0.422178,-1.32 l -0.95213,-0.96 0.452505,0.96 c 0.513022,1.088386 0.47267,2.670254 -0.09323,3.65473 -0.210327,0.365899 0.05125,0.23327 0.581286,-0.29473 0.652893,-0.65039 0.792782,-1.076102 0.433745,-1.32 z m 3.217445,-1.742794 c -0.105029,-2.906294 -0.186774,-3.076161 -1.278697,-2.65715 -1.409155,0.540744 -0.903827,4.490093 0.582653,4.553683 0.622914,0.02664 0.586905,0.126658 -0.171355,0.475925 l -0.96,0.442186 0.96,-0.126116 c 0.838025,-0.110097 0.948234,-0.451694 0.867399,-2.688528 z m 8.613622,-4.115841 c -0.18346,-1.627651 0.0026,-2.551704 0.778962,-3.867437 C 35.265607,66.762749 35.26736,66.72 34.108327,66.72 c -1.352223,0 -1.66034,-0.835459 -0.795116,-2.155958 C 34.199693,63.211099 33.864059,61.92 32.625869,61.92 c -1.942985,0 -2.923337,9.175656 -1.252761,11.725277 1.311635,2.001806 2.149716,1.596245 1.867912,-0.903912 z M 24.380688,71.88 c 0.05769,-0.858 0.228795,-2.154 0.380238,-2.88 0.226369,-1.085189 0.107752,-1.32 -0.666805,-1.32 -1.607003,0 -2.18605,4.372584 -0.694122,5.241552 0.462,0.269093 0.848056,0.495826 0.8579,0.503851 0.0098,0.008 0.0651,-0.687403 0.122789,-1.545403 z m -5.880951,-3.751934 c 0.49251,-0.796901 0.05045,-0.907407 -0.638663,-0.159653 C 17.520666,68.337787 17.453918,68.64 17.712746,68.64 c 0.258829,0 0.612974,-0.230371 0.786991,-0.511934 z M 47.308366,65.86837 c -0.213886,-0.213888 -2.030829,0.480868 -3.096768,1.184131 -0.10362,0.06837 0.06838,0.433699 0.382223,0.811857 0.484634,0.583949 0.752491,0.50569 1.777491,-0.519307 0.663777,-0.663777 1.085452,-1.328285 0.937054,-1.476681 z m -29.075717,0.232704 c 0.004,-0.208407 -0.293978,-0.100407 -0.662269,0.24 -0.36829,0.340411 -0.55729,0.803985 -0.42,1.030171 0.248998,0.410222 1.068326,-0.551357 1.082269,-1.270171 z m 49.621243,1.245033 c 0.584847,-0.584846 1.950048,-0.592776 2.308123,-0.01339 0.190181,0.307719 0.496311,0.40897 0.680285,0.224995 0.68401,-0.684009 -0.933485,-1.797926 -2.621073,-1.805049 -2.467666,-0.01042 -3.142896,-0.559339 -2.732228,-2.221133 0.247738,-1.002499 0.195504,-1.230773 -0.19414,-0.848414 -0.293189,0.287707 -0.578472,1.149566 -0.633965,1.915238 -0.08993,1.240786 0.08174,1.424914 1.579104,1.693704 1.631813,0.29293 1.638696,0.303178 0.24,0.357418 -1.844722,0.07153 -2.489314,-0.359434 -2.76624,-1.849464 -0.191506,-1.030402 -0.232262,-0.982892 -0.288394,0.336148 -0.04286,1.007314 0.22381,1.704581 0.774634,2.025404 0.968798,0.564273 3.163329,0.675115 3.653894,0.184555 z M 24.182951,60.095304 c 0.454983,-0.871584 1.149273,-1.708272 1.542868,-1.859304 0.62771,-0.240878 0.623205,-0.376738 -0.03667,-1.105891 -1.756449,-1.940851 0.635861,-3.393211 5.176191,-3.142435 2.814594,0.155457 3.082233,0.08961 2.873907,-0.707031 -0.148241,-0.566875 0.142681,-1.077749 0.820224,-1.44036 1.450776,-0.776433 3.36053,-0.225835 3.36053,0.968861 0,0.52297 0.167708,0.950856 0.372684,0.950856 0.204977,0 0.290289,-0.864 0.189583,-1.92 -0.178287,-1.869514 -0.230866,-1.92 -1.999617,-1.92 -2.434616,0 -10.040297,2.007398 -12.061016,3.183312 -1.849617,1.076347 -3.387303,3.754018 -3.047766,5.307269 0.126311,0.577824 0.01286,1.184573 -0.252106,1.348329 -0.710919,0.439373 -0.585199,1.20109 0.198238,1.20109 0.997153,0 1.21985,1.079136 0.413928,2.005795 -0.598785,0.688488 -0.607136,1.065874 -0.05737,2.592365 l 0.643438,1.786574 0.517855,-2.832369 c 0.28482,-1.557802 0.890113,-3.545477 1.345097,-4.417061 z m 0.560644,6.37812 C 24.756574,66.213043 24.899711,65.568 25.061681,65.04 c 0.807828,-2.6334 0.870486,-4.452624 0.162712,-4.724218 -0.520022,-0.199555 -0.840995,0.215559 -1.163167,1.504306 -1.078829,4.315522 -1.083217,4.418174 -0.190372,4.453651 0.741275,0.02947 0.727193,0.08991 -0.110855,0.475925 l -0.96,0.442186 0.96,-0.122496 c 0.528,-0.06738 0.970618,-0.335544 0.983596,-0.59593 z M 62.860779,64.44 c -0.0191,-2.74333 -0.02362,-2.751874 -0.748829,-1.414238 -0.616099,1.1364 -0.632218,1.565784 -0.103608,2.76 0.344304,0.77783 0.681274,1.414238 0.748829,1.414238 0.06755,0 0.114177,-1.242 0.103608,-2.76 z m -43.602185,0.996 c -0.565845,-0.973061 -0.702486,-0.661608 -0.239296,0.545443 0.164614,0.428976 0.400414,0.678845 0.523998,0.555259 0.123585,-0.123585 -0.0045,-0.618902 -0.284702,-1.100702 z m 40.884353,0.338794 c -0.135946,-0.51986 -0.0107,-1.65386 0.278342,-2.52 0.480226,-1.439064 0.464031,-1.49449 -0.187886,-0.643052 -0.731088,0.954836 -0.965885,3.21578 -0.393403,3.788256 0.507672,0.507672 0.56712,0.384989 0.302947,-0.625204 z M 36.239999,65.16217 c 0.264,-0.0019 1.946411,0.137952 3.73869,0.310819 2.50734,0.241843 3.634946,0.135768 4.890548,-0.460056 1.505434,-0.714375 1.654049,-0.985037 1.918297,-3.493651 0.157542,-1.495604 0.477285,-3.907282 0.71054,-5.359282 0.326037,-2.029555 0.356597,-1.585594 0.132164,1.92 -0.445217,6.954187 -0.455645,6.833434 0.60976,7.06092 1.099973,0.234874 3.889123,0.322445 6.810168,0.213826 1.564421,-0.05817 2.01097,-0.261015 2.013778,-0.914746 0.0055,-1.284797 0.85114,-4.915085 1.234099,-5.298043 0.186993,-0.186994 0.191016,0.253569 0.0089,0.979027 -0.211949,0.844464 -0.139642,1.319016 0.200981,1.319016 0.292622,0 0.549091,0.378 0.569932,0.84 0.02381,0.528034 0.129807,0.611174 0.28538,0.223862 0.136113,-0.338875 -0.01536,-0.932875 -0.336668,-1.32 -0.430689,-0.518947 -0.444163,-0.872539 -0.0513,-1.34592 0.766032,-0.923006 -1.593442,-2.211811 -2.460998,-1.344254 -0.461717,0.461717 -0.441111,0.676013 0.09698,1.008571 0.565771,0.349666 0.584774,0.751027 0.110505,2.334 L 56.14899,63.74797 53.154472,63.489715 c -4.62239,-0.398654 -4.674509,-0.45648 -4.674509,-5.186601 0,-2.539695 0.190594,-4.063114 0.50833,-4.063114 0.279581,0 0.374832,-0.216 0.21167,-0.48 -0.429513,-0.694963 -3.112284,-0.593117 -3.160921,0.12 -0.02251,0.33 -0.0081,1.706506 0.03197,3.058901 0.109897,3.707198 -0.937692,5.771251 -3.244385,6.392376 -1.92079,0.517219 -4.552351,0.0181 -5.626663,-1.067208 -0.321468,-0.324754 -0.281835,-0.373027 0.12,-0.14616 0.33,0.186312 0.6,0.110001 0.6,-0.169579 -2e-6,-0.279581 -0.324002,-0.50833 -0.720002,-0.50833 -0.396,0 -0.72,-0.231427 -0.72,-0.514286 0,-0.282855 -0.322654,-0.836938 -0.717009,-1.231296 -0.636012,-0.63601 -0.690896,-0.458943 -0.48585,1.567468 0.162937,1.610261 0.0028,2.633055 -0.542725,3.465572 -0.732998,1.118697 -0.726349,1.16147 0.125851,0.809644 0.494853,-0.204297 1.115733,-0.373017 1.379733,-0.374932 z M 19.230857,61.289141 C 18.782533,60.848779 18.686338,60.882912 18.805713,61.44 c 0.08486,0.396 -0.10794,0.668592 -0.428439,0.60576 -0.332763,-0.06524 -0.467189,0.18684 -0.313379,0.587664 0.233622,0.608808 0.3673,0.60395 1.007869,-0.03662 0.576046,-0.576048 0.611047,-0.863736 0.159093,-1.307669 z M 20.487894,62.31 c -0.153228,-0.38291 -0.266968,-0.269174 -0.29,0.290002 -0.02084,0.505996 0.0926,0.789499 0.252105,0.63 0.1595,-0.159504 0.176553,-0.573504 0.0379,-0.920002 z m 23.738928,-0.348634 c 1.008593,-0.817636 1.133177,-1.314585 1.133177,-4.520107 0,-1.980811 -0.143454,-3.744878 -0.318786,-3.92015 -0.175332,-0.175272 -0.823332,-0.230688 -1.44,-0.123144 l -1.121214,0.195537 1.2,0.532824 c 0.777294,0.345135 0.922837,0.543543 0.413176,0.563247 -0.432753,0.01675 -1.275316,-0.365131 -1.872362,-0.848587 -0.808189,-0.654432 -1.006815,-1.17564 -0.777419,-2.04 0.514912,-1.940175 1.008278,-2.351684 3.18441,-2.656066 4.608838,-0.644645 6.885065,-3.194346 6.63835,-7.435896 -0.135173,-2.323899 -0.18974,-2.425411 -0.726125,-1.350871 -0.318979,0.639016 -0.819994,2.104676 -1.113355,3.257024 -0.666639,2.618571 -2.371138,4.397586 -4.164857,4.346928 -1.39591,-0.03942 -1.213117,-0.177205 0.823018,-0.62036 1.746981,-0.380222 2.877976,-2.616908 2.859899,-5.655805 -0.018,-3.02506 -0.781032,-4.24594 -2.653652,-4.24594 -1.61987,0 -1.04389,0.799352 0.748916,1.039356 1.094684,0.146545 1.197322,0.361245 1.169482,2.446323 -0.04171,3.123543 -1.281593,4.663367 -4.763247,5.915516 -1.531126,0.550657 -3.076899,1.401939 -3.43505,1.891741 -0.862872,1.180051 -0.831109,4.605696 0.05355,5.775322 0.387604,0.512457 0.711604,0.780763 0.72,0.596236 0.0084,-0.184531 0.802628,-0.0065 1.764959,0.395559 1.438055,0.600859 1.821464,0.61787 2.15265,0.09551 0.246957,-0.389515 0.405802,0.348466 0.410306,1.906253 0.006,2.064547 -0.213874,2.763043 -1.170831,3.72 -0.648,0.648 -1.521818,1.178184 -1.941818,1.178184 -0.826522,0 -3.12,-2.067984 -3.12,-2.813246 0,-0.251285 0.432,-0.343911 0.96,-0.205834 1.183389,0.309466 1.346007,-1.050086 0.179161,-1.497845 -1.852809,-0.71099 -2.758526,1.921944 -1.351943,3.93012 0.967784,1.381709 3.940262,1.460928 5.559605,0.148171 z m 10.217354,-0.0019 C 55.547729,60.74017 55.274979,58.8 53.999998,58.8 c -0.668923,0 -0.913881,0.269299 -0.807897,0.888168 0.0913,0.533136 -0.0526,0.761654 -0.36,0.571675 -0.779472,-0.481742 -0.611952,-1.755619 0.327897,-2.493475 0.746208,-0.585826 0.625613,-0.645331 -1.08,-0.532915 -1.792896,0.118171 -1.930113,0.231893 -2.07275,1.717901 -0.282149,2.939428 2.342707,4.049793 3.613661,1.528646 0.541099,-1.073362 0.605683,-1.096157 0.612014,-0.216 0.01003,1.392941 -0.905909,2.136 -2.632925,2.136 -0.8184,0 -1.7472,-0.2592 -2.064,-0.576 -0.400238,-0.400238 -0.576,-0.412445 -0.576,-0.03998 0,1.349654 4.297152,1.487232 5.484178,0.175584 z m 12.830092,-1.96632 c 0.251011,-0.720038 0.930984,-1.538467 1.511055,-1.818729 0.691411,-0.334051 0.802195,-0.520752 0.321648,-0.54205 -0.403167,-0.01786 -1.442496,0.615514 -2.309626,1.407514 -0.86713,0.792 -2.035344,1.44 -2.596037,1.44 -1.1287,1.39e-4 -3.24131,-1.749567 -3.24131,-2.684381 0,-1.782101 -8.392608,-4.160755 -9.329836,-2.644282 -0.187839,0.303922 -0.163464,0.506679 0.05416,0.450572 0.871766,-0.22476 4.834757,0.731073 6.754574,1.629144 1.135474,0.531163 2.307734,1.51546 2.64563,2.221425 0.654432,1.367314 3.25585,2.497983 4.811381,2.091202 0.507091,-0.13261 1.127357,-0.830232 1.378363,-1.550275 z M 34.263146,60.69493 c 0.163918,-0.427162 0.08345,-0.619834 -0.188645,-0.451671 -0.260976,0.161429 -0.474502,0.496651 -0.474502,0.745071 0,0.690446 0.344048,0.5383 0.663147,-0.293261 z m 8.599991,0.301756 c 1.717248,-0.652896 2.013479,-2.370624 0.507566,-2.943172 -1.657581,-0.630212 -2.236936,-0.567068 -1.938269,0.211243 0.140329,0.365693 -0.04494,1.093315 -0.411699,1.616947 -1.022156,1.45933 -0.266348,1.916731 1.842402,1.114982 z M 20.007894,59.91 c -0.153228,-0.38291 -0.266968,-0.269174 -0.29,0.290002 -0.02084,0.505996 0.0926,0.789499 0.252106,0.63 0.159499,-0.159504 0.176552,-0.573504 0.0379,-0.920002 z m 45.032104,-0.39 c 0.163161,-0.264 -0.10489,-0.48 -0.595671,-0.48 -0.49078,0 -1.147929,-0.2556 -1.460327,-0.567998 -0.312404,-0.312404 -0.733263,-0.40274 -0.935247,-0.200756 C 61.633688,58.686312 63.225425,60 64.143411,60 c 0.329961,0 0.733425,-0.216 0.896587,-0.48 z m 16.079999,0.04238 c 1.091079,-0.31091 1.025727,-0.371443 -0.72,-0.666874 -1.056,-0.178704 -2.339284,-0.327297 -2.851742,-0.330201 -0.922325,-0.0052 -0.922325,0.0019 0,0.699451 1.011168,0.764808 1.723853,0.824194 3.571742,0.297624 z M 27.839999,58.32 c 0.720479,-0.766915 0.894242,-1.2 0.481466,-1.2 -0.735678,0 -2.401466,1.383422 -2.401466,1.994395 0,0.742066 0.779593,0.419511 1.92,-0.794395 z m 10.08,-0.198091 c 0,-0.785631 -1.456512,-1.949755 -2.793565,-2.232763 -0.707539,-0.149765 -1.899692,-0.605679 -2.649229,-1.013136 l -1.362793,-0.740842 0.667016,1.273046 c 0.366859,0.700176 1.295652,1.653288 2.063985,2.118029 1.545457,0.934795 4.074586,1.30453 4.074586,0.595666 z m -4.338132,-1.502938 -1.661868,-1.461033 1.794058,1.101033 c 0.986732,0.605563 1.796732,1.263029 1.8,1.461029 0.0092,0.555994 -0.151596,0.464376 -1.93219,-1.101029 z M 67.664921,57.72 c 1.431163,-0.800002 1.532678,-0.800002 2.131814,0 0.769205,1.02708 1.243263,1.076323 1.243263,0.129144 0,-0.988694 -1.953048,-1.377677 -4.033291,-0.803294 -2.101272,0.58019 -4.071912,0.09533 -6.526709,-1.60585 -2.713949,-1.88077 -8.16,-3.002016 -8.16,-1.68 0,0.264 0.918,0.484742 2.04,0.490541 2.026863,0.01046 4.122586,0.846398 7.8,3.111201 2.284569,1.406991 3.488606,1.485351 5.504923,0.358258 z m 10.014336,0.329573 c 1.244616,-0.02957 1.25028,-0.04267 0.20074,-0.46453 -1.334649,-0.536467 -1.42056,-0.944227 -0.127704,-0.606139 1.214448,0.317587 3.367704,-0.211858 3.367704,-0.828048 0,-0.25897 -0.792,-0.470856 -1.760001,-0.470856 -0.967997,0 -1.617408,-0.142594 -1.443125,-0.316872 0.174278,-0.174278 1.809,-0.268478 3.632717,-0.209328 1.942627,0.06301 3.446548,-0.103944 3.631454,-0.403128 C 85.384797,54.420989 84.787932,54.24 83.496972,54.24 c -1.587259,0 -1.942248,-0.149669 -1.721213,-0.725688 0.153163,-0.39913 0.02213,-1.288339 -0.291216,-1.976026 l -0.569693,-1.250337 -0.362841,1.35671 c -0.238704,0.892541 -0.162557,1.498771 0.222571,1.771939 0.344333,0.244234 -0.205267,0.294327 -1.334583,0.121642 -4.144823,-0.633782 -6.959999,-1.303291 -6.959999,-1.655222 0,-0.660221 2.194929,-1.389096 3.456734,-1.147887 0.676905,0.129399 1.376803,-9.6e-4 1.555329,-0.289929 C 77.686937,50.129885 77.421689,49.92 76.828327,49.92 c -0.558514,0 -0.988329,-0.313123 -0.988329,-0.72 0,-0.861797 0.177105,-0.859306 -4.349108,-0.06118 -1.996012,0.351965 -4.257182,1.049717 -5.024831,1.550558 -1.393752,0.909336 -1.394108,0.910848 -0.253076,1.074197 0.886863,0.126965 0.990912,0.262066 0.464828,0.603533 -0.553354,0.35917 -0.475205,0.597163 0.425601,1.296144 0.747197,0.579787 0.998775,1.128878 0.77929,1.700851 -0.271733,0.70812 -0.129207,0.795735 0.881688,0.542016 0.910939,-0.228629 1.483339,-0.0082 2.34071,0.901431 1.071245,1.136529 3.236069,1.805424 4.654157,1.438056 0.35159,-0.09108 1.21559,-0.1793 1.92,-0.196037 z M 66.940275,55.562496 C 68.001622,54.047213 67.05894,53.944694 65.588182,55.415453 64.495759,56.507875 64.461924,56.64 65.274598,56.64 c 0.501029,0 1.250582,-0.484877 1.665677,-1.077504 z M 38.784439,55.434322 c 0.981964,0.07899 1.024558,0.009 0.384091,-0.631508 -0.553721,-0.553718 -0.874929,-0.59206 -1.388605,-0.165744 -0.367541,0.305031 -0.810381,0.412474 -0.984091,0.238767 -0.173709,-0.173712 -0.315835,-0.09983 -0.315835,0.164165 0,0.716678 0.615054,1.194249 0.927213,0.719952 0.150033,-0.227962 0.769785,-0.374492 1.377227,-0.325632 z m 25.908754,-0.02155 c 0.586742,-0.410957 1.066805,-1.042402 1.066805,-1.403199 0,-0.553843 -0.205805,-0.553325 -1.32169,0.0034 -0.956976,0.477403 -1.851033,0.542338 -3.24,0.235311 l -1.91831,-0.424042 1.44,1.165522 c 1.681022,1.360598 2.508835,1.448745 3.973195,0.423072 z M 35.639999,54.882106 c -0.33,-0.133157 -0.87,-0.133157 -1.2,0 -0.33,0.133156 -0.06,0.242107 0.6,0.242107 0.66,0 0.93,-0.108951 0.6,-0.242107 z m 16.012027,-0.844599 c 0.144043,-0.375369 0.01008,-1.153017 -0.297701,-1.728105 -0.50113,-0.936375 -0.793349,-1.007636 -2.79696,-0.682071 -1.230552,0.199954 -2.615367,0.375888 -3.077366,0.390965 -0.462,0.01507 -0.84,0.197131 -0.84,0.404563 0,0.207427 1.100221,0.377141 2.444937,0.377141 2.041258,0 2.486386,0.158506 2.695982,0.96 0.289436,1.106794 1.484847,1.284091 1.871108,0.277507 z M 49.577149,52.92 c -0.684307,-0.695352 -0.833458,-1.08 -0.418771,-1.08 0.749707,0 1.888848,1.233802 1.647,1.783862 C 50.714418,53.830738 50.161717,53.514 49.577149,52.92 Z M 26.417311,51.118416 c 1.442478,-0.197952 3.054688,-0.549643 3.582688,-0.781531 0.752807,-0.330619 0.649211,-0.374851 -0.48,-0.204946 -0.792,0.11917 -2.412,0.356995 -3.6,0.528495 -2.598652,0.375144 -4.100902,1.249891 -4.45196,2.592345 -0.218911,0.837115 -0.05531,0.775373 1.033245,-0.389923 0.984426,-1.053835 1.919766,-1.47049 3.916027,-1.74444 z m 37.902687,2.103806 c 0,-0.280353 -0.458165,-0.350318 -1.08,-0.164923 -1.062432,0.316752 -1.064386,0.30972 -0.12,-0.432389 1.132382,-0.889838 0.321552,-1.020192 -1.417416,-0.22786 -1.725749,0.786302 -1.522138,1.147012 0.697416,1.23552 1.056,0.0421 1.92,-0.142546 1.92,-0.410348 z m -6.72,-0.559545 c 0,-0.406407 -0.615005,-0.592243 -1.8,-0.543912 -0.99,0.04037 -2.079153,-0.147874 -2.420342,-0.418335 -0.427608,-0.338961 -0.788093,-0.323995 -1.160266,0.04818 -0.638371,0.638371 -0.04879,0.920376 2.500608,1.196078 0.924,0.09992 1.95,0.216245 2.28,0.258495 0.33,0.04224 0.6,-0.200976 0.6,-0.540504 z m 2.998526,-0.314453 c 0.856032,-0.42913 1.486474,-1.265563 1.797322,-2.384602 0.691046,-2.487702 0.602328,-3.035853 -0.68963,-4.26079 -0.636461,-0.603442 -1.614653,-2.042141 -2.173767,-3.197109 -1.044955,-2.158593 -1.725533,-2.670927 -3.53171,-2.658647 -0.985387,0.0067 -0.976915,0.03936 0.159259,0.614176 1.488058,0.752834 1.56168,2.340022 0.13753,2.965022 -0.793344,0.348164 -0.993706,0.740273 -0.790987,1.547959 0.204878,0.816303 -0.0055,1.211434 -0.85753,1.610541 -1.147978,0.537739 -4.015142,4.209095 -3.60636,4.617877 0.123125,0.123125 0.683486,-0.0611 1.24525,-0.409392 0.773452,-0.479539 1.106923,-0.495989 1.37375,-0.06776 0.193795,0.311025 0.673205,0.546998 1.06535,0.524385 2.412111,-0.139099 3.458299,0.169109 3.699048,1.089744 0.140899,0.538795 0.390677,0.909864 0.555063,0.824597 0.16439,-0.08526 0.892224,-0.452467 1.617412,-0.816001 z M 43.439999,52.32 c 0.516892,-0.836347 -0.249259,-1.549862 -0.997449,-0.92892 -0.369589,0.30673 -0.553612,0.749222 -0.408938,0.983309 0.350149,0.566553 1.03909,0.539909 1.406387,-0.05439 z m 33.359998,0 c 0,-0.264 -0.594,-0.458467 -1.319999,-0.432154 l -1.32,0.04786 1.2,0.384298 c 0.659999,0.211368 1.253999,0.40584 1.319999,0.432154 0.066,0.02631 0.12,-0.168154 0.12,-0.432154 z m 2.125584,0.12 c -0.238929,-0.198 -0.595622,-0.576 -0.792648,-0.84 -0.204436,-0.273926 -0.361392,-0.119366 -0.365587,0.36 -0.0043,0.466939 0.347947,0.84 0.792653,0.84 0.439997,0 0.604512,-0.162 0.365582,-0.36 z M 14.4,50.64 c 0,-1.05143 -0.208,-1.2 -1.68,-1.2 -1.040001,0 -2.045715,-0.365712 -2.64,-0.96 L 9.1199997,47.52 v 1.412784 c 0,1.732013 1.4984223,2.907216 3.7068023,2.907216 1.358077,0 1.573198,-0.164088 1.573198,-1.2 z m 1.610992,0.0543 c -0.08379,-0.974261 1.771789,-1.984978 4.465645,-2.432405 1.644382,-0.273116 2.087422,-0.177274 2.511217,0.54324 0.44334,0.753749 0.579236,0.776141 0.981592,0.161765 0.733616,-1.120193 -0.694827,-1.601506 -3.892445,-1.311556 -3.436955,0.31165 -5.197001,1.339744 -5.197001,3.035723 0,0.776031 0.221118,1.15093 0.599999,1.017269 0.33,-0.11641 0.568947,-0.572731 0.530993,-1.014038 z m 1.989007,0.6657 c 0.163162,-0.264 -0.04009,-0.48 -0.451671,-0.48 -0.411581,0 -0.748329,0.216 -0.748329,0.48 0,0.264 0.203253,0.48 0.451672,0.48 0.24842,0 0.585167,-0.216 0.748328,-0.48 z m 2.039935,-0.760066 c -0.45742,-0.45742 -1.374476,0.283488 -1.033588,0.835056 0.202617,0.32784 0.471103,0.31956 0.81583,-0.02515 0.282603,-0.282604 0.380594,-0.647054 0.217758,-0.809889 z M 21.599999,50.88 c 0,-0.264 -0.228748,-0.48 -0.508328,-0.48 -0.27958,0 -0.374833,0.216 -0.211672,0.48 0.163161,0.264 0.391909,0.48 0.508328,0.48 0.11642,0 0.211672,-0.216 0.211672,-0.48 z m 41.972149,0.04507 c 0.147845,-0.239218 0.680621,-0.327245 1.183949,-0.195624 0.873144,0.228326 2.923901,-1.287024 2.923901,-2.160547 0,-0.412541 -3.064368,-2.008901 -3.856286,-2.008901 -0.255044,0 -0.463714,0.6622 -0.463714,1.471555 0,0.809357 -0.223598,1.889357 -0.496886,2.4 -0.497631,0.929827 0.15754,1.385842 0.709036,0.493507 z M 23.279999,50.4 c 0.163161,-0.264 0.08066,-0.48 -0.183343,-0.48 -0.264,0 -0.613496,0.216 -0.776657,0.48 -0.163161,0.264 -0.08066,0.48 0.183344,0.48 0.264,0 0.613495,-0.216 0.776656,-0.48 z m 22.439999,0.162106 c -0.329999,-0.133157 -0.869999,-0.133157 -1.199999,0 -0.33,0.133156 -0.06,0.242107 0.6,0.242107 0.659999,0 0.929999,-0.108951 0.599999,-0.242107 z m 4.422154,-0.963 c 1.668043,-1.133463 1.77755,-1.319914 0.951427,-1.619936 -1.186958,-0.431061 -1.71503,-0.124724 -1.54631,0.897027 0.07919,0.479601 -0.138159,0.745776 -0.538887,0.659933 -1.008991,-0.216144 -2.069849,0.311366 -1.730479,0.860481 0.43966,0.711384 0.785383,0.61512 2.864249,-0.797505 z M 19.679999,49.44 c 0,-0.264 -0.203252,-0.48 -0.451671,-0.48 -0.24842,0 -0.585167,0.216 -0.748329,0.48 -0.163161,0.264 0.04009,0.48 0.451672,0.48 0.411581,0 0.748328,-0.216 0.748328,-0.48 z m 1.2,0 c 0.163161,-0.264 0.06791,-0.48 -0.211672,-0.48 -0.27958,0 -0.508328,0.216 -0.508328,0.48 0,0.264 0.09525,0.48 0.211672,0.48 0.11642,0 0.345167,-0.216 0.508328,-0.48 z M 25.713,47.743 c -1.064188,-1.624156 -1.378623,-1.309721 -0.64195,0.64195 0.356149,0.943541 0.744806,1.351191 1.023007,1.072992 0.2782,-0.278198 0.133429,-0.929736 -0.381057,-1.714942 z m -3.153001,1.217 c 0,-0.264 -0.216,-0.48 -0.48,-0.48 -0.264,0 -0.48,0.216 -0.48,0.48 0,0.264 0.216,0.48 0.48,0.48 0.264,0 0.48,-0.216 0.48,-0.48 z m 5.88,0.162106 c -0.33,-0.133157 -0.87,-0.133157 -1.2,0 -0.33,0.133156 -0.06,0.242107 0.6,0.242107 0.66,0 0.93,-0.108951 0.6,-0.242107 z M 34.042104,48.6 c -0.02286,-0.50676 -0.134337,-0.600784 -0.280997,-0.23701 -0.133706,0.331647 -0.474027,0.460272 -0.756269,0.285836 -0.303312,-0.187455 -0.373108,-0.09053 -0.170675,0.237009 0.517633,0.837547 1.250793,0.664061 1.207941,-0.285835 z m 1.957895,0.36 c 0,-0.264 -0.228748,-0.48 -0.508328,-0.48 -0.279581,0 -0.374833,0.216 -0.211672,0.48 0.163161,0.264 0.391908,0.48 0.508328,0.48 0.11642,0 0.211672,-0.216 0.211672,-0.48 z M 12.48,48.810269 c 0,-0.08235 -0.642,-0.624384 -1.426667,-1.204513 -0.849995,-0.628429 -1.3237276,-0.786524 -1.1719981,-0.391124 0.1400681,0.36501 0.7280681,0.892422 1.3066661,1.172027 1.246294,0.602261 1.291999,0.617247 1.291999,0.42361 z m 28.390333,-1.675993 1.750334,-1.090494 -0.04439,-4.065997 -0.04438,-4.065997 -1.585948,0.297526 C 39.759976,38.431803 39.36,38.335994 39.36,37.82942 39.36,36.879735 40.346382,36 41.411195,36 c 0.59398,0 0.844923,-0.281813 0.739305,-0.830248 -0.128809,-0.668852 -0.578875,-0.800347 -2.315196,-0.676427 -1.185417,0.0846 -2.252504,0.249414 -2.371304,0.366248 -0.669072,0.658003 -0.104085,3.633307 0.891091,4.692624 1.151918,1.22616 1.17301,1.838361 0.247641,7.187636 -0.347816,2.010613 -0.331144,2.013517 2.267602,0.394443 z M 30.10168,47.310794 c 0.05592,-0.04078 -0.538076,-0.315637 -1.32,-0.61078 -0.785846,-0.296624 -1.421681,-0.340596 -1.421681,-0.09832 0,0.241068 0.27,0.441613 0.6,0.445655 0.403537,0.0049 0.364244,0.166889 -0.12,0.494581 -0.52582,0.355827 -0.33164,0.400361 0.72,0.165125 0.792,-0.177158 1.485756,-0.355476 1.541681,-0.396261 z m 3.978319,-1.623017 c 0.513657,-0.162681 0.444876,0.08848 -0.24,0.8764 l -0.96,1.104432 1.322403,-0.851083 c 1.133209,-0.729321 1.442236,-0.75712 2.16,-0.194305 0.740555,0.580687 0.768565,0.568245 0.241761,-0.107385 -0.327709,-0.420291 -0.453709,-0.906291 -0.28,-1.08 C 36.497873,45.262126 36.027007,45.12 35.277794,45.12 c -1.534513,0 -3.121379,1.201043 -3.110719,2.354394 0.0046,0.492573 0.218526,0.351176 0.6,-0.396489 0.326108,-0.639152 0.916924,-1.26471 1.312924,-1.390128 z m -16.2,1.514328 c -0.33,-0.133158 -0.87,-0.133158 -1.2,0 -0.33,0.133158 -0.06,0.242105 0.6,0.242105 0.66,0 0.93,-0.108947 0.6,-0.242105 z M 52.508643,46.760742 C 52.922192,45.683054 52.905296,45.662339 51.839998,45.94092 50.855888,46.198271 50.634267,46.63427 51.2,47.2 c 0.525633,0.525636 0.999403,0.366612 1.308643,-0.439258 z M 23.732333,46.604764 C 23.880278,46.365384 23.569026,46.282577 23.040662,46.420747 21.919868,46.713841 21.778191,47.04 22.771671,47.04 c 0.38042,0 0.812718,-0.195856 0.960662,-0.435236 z M 67.679998,46.06812 c 0,-1.091495 -2.091701,-2.131765 -3.322776,-1.652524 -0.621422,0.241911 -0.515693,0.503677 0.589541,1.45959 1.640899,1.419206 2.733235,1.496312 2.733235,0.192934 z m -50.039999,0.161004 c -0.462,-0.120733 -1.218,-0.120733 -1.68,0 -0.462,0.120733 -0.084,0.219515 0.84,0.219515 0.924,0 1.302,-0.09878 0.84,-0.219515 z m 26.355066,-4.219563 c -0.05039,-2.732254 -0.191632,-3.639623 -0.429631,-2.76 -0.41608,1.53779 -0.269151,6.829948 0.189631,6.830239 0.173286,1.1e-4 0.281286,-1.831498 0.24,-4.070239 z m 10.933848,3.640736 c 0.146064,-0.236337 -0.05027,-0.550903 -0.4363,-0.699037 -0.750082,-0.287834 -1.390676,0.31068 -0.879567,0.82179 0.433925,0.433925 1.004731,0.380677 1.315867,-0.122753 z m 21.871084,0.0085 c 0,-0.625637 -1.239763,-1.539011 -1.599998,-1.178774 -0.36024,0.360238 0.553133,1.6 1.17877,1.6 0.231676,0 0.421228,-0.189552 0.421228,-0.421226 z M 25.439788,44.76 c 1.49e-4,-0.42396 -1.004668,-0.6 -3.424747,-0.6 -3.036722,0 -3.551022,-0.136026 -4.53708,-1.2 -0.611667,-0.66 -1.371914,-1.2 -1.689436,-1.2 -0.370615,0 -0.292892,0.314282 0.21708,0.877796 0.436917,0.482787 0.794394,1.222949 0.794394,1.644804 0,0.947419 0.750496,1.10596 5.159789,1.089998 2.456997,-0.0089 3.479851,-0.188952 3.48,-0.612598 z M 46.787672,44.183837 C 47.727423,42.366558 47.7126,42.24 46.559998,42.24 c -0.639999,0 -0.96,-0.32 -0.96,-0.96 0,-0.528 0.228748,-0.96 0.508329,-0.96 0.27958,0 0.374833,0.216 0.211671,0.48 -0.163161,0.264 0.02735,0.48 0.423344,0.48 0.934825,0 1.334978,-0.677376 0.966859,-1.636684 C 47.382143,38.788412 45.347143,38.604145 44.86417,39.385612 44.432201,40.084552 45.116159,45.6 45.634802,45.6 c 0.231299,0 0.750091,-0.637273 1.15287,-1.416163 z M 53.169997,44.25 c 0.1045,-0.3135 -0.151997,-0.57 -0.57,-0.57 -0.417999,0 -0.759999,0.342 -0.759999,0.76 0,0.847645 1.033325,0.700027 1.329999,-0.19 z M 64.06639,44.2565 65.164207,43.392959 63.973361,41.3765 c -1.287446,-2.180041 -1.781414,-2.372877 -3.244872,-1.26674 -0.943824,0.71338 -0.942317,0.736513 0.186701,2.864734 1.27043,2.394778 1.57765,2.519765 3.1512,1.282006 z M 55.703849,42.72 c 1.356826,0 1.150176,-1.282212 -0.263851,-1.637109 -1.414397,-0.35499 -1.625707,-1.907236 -0.36,-2.644443 0.750178,-0.436938 0.724512,-0.490816 -0.24,-0.503852 -0.918917,-0.01242 -1.08,0.238284 -1.08,1.680872 0,1.302865 0.241887,1.784948 1.044605,2.081892 l 1.044605,0.386424 -1.044605,0.273171 c -0.604963,0.158202 -1.038461,0.645611 -1.030008,1.158107 0.01368,0.830864 0.0445,0.83361 0.503851,0.04494 0.269088,-0.462 0.910522,-0.84 1.425403,-0.84 z M 66.2295,40.692487 c -1.709088,-2.150443 -0.948129,-1.783474 1.989423,0.95939 1.231291,1.149688 2.097523,1.577617 2.967321,1.465899 1.195507,-0.153552 1.159493,-0.231014 -1.345027,-2.893099 -2.398896,-2.549817 -2.689013,-2.716565 -4.277789,-2.458742 -1.091107,0.177062 -1.584941,0.470429 -1.372464,0.815323 0.182549,0.296308 -0.272481,0.143483 -1.011177,-0.339611 -0.738696,-0.483095 -1.451083,-0.770354 -1.583083,-0.638354 -0.132,0.132 0.264744,0.571079 0.881649,0.97573 0.616906,0.404651 1.543368,1.55591 2.058811,2.558353 1.53217,2.979797 1.752514,3.178657 2.591971,2.339201 0.655469,-0.65547 0.561855,-0.945189 -0.899635,-2.78409 z M 74.951998,43.44 c 0,-0.2508 -0.2322,-0.5334 -0.516,-0.628 -0.2838,-0.0946 -0.516,0.188 -0.516,0.628 0,0.44 0.2322,0.7226 0.516,0.628 0.2838,-0.0946 0.516,-0.3772 0.516,-0.628 z M 38.159999,42.72 c 0.163161,-0.264 0.08448,-0.48 -0.174844,-0.48 -0.259325,0 -1.115289,-0.541713 -1.902143,-1.203806 -1.185673,-0.997678 -1.40826,-1.511369 -1.299929,-3 0.07189,-0.987907 0.03859,-1.217806 -0.07401,-0.510887 -0.186051,1.168081 -0.366354,1.268071 -1.976899,1.096328 -1.66804,-0.177874 -1.687559,-0.16507 -0.332175,0.217902 1.372912,0.387924 1.384093,0.411292 0.24,0.501567 -0.72192,0.05696 -0.913152,0.190355 -0.48,0.33482 0.396,0.132074 1.044,0.366367 1.44,0.52065 0.396,0.154283 0.8712,0.299169 1.056,0.32197 0.1848,0.0228 0.6168,0.343246 0.96,0.712102 0.52301,0.562106 0.472986,0.617026 -0.309088,0.339343 -0.909975,-0.323096 -0.911105,-0.307011 -0.04561,0.649355 0.943857,1.042951 2.407318,1.295717 2.898693,0.500656 z m -1.916602,-0.474502 c -0.168163,-0.272093 0.02451,-0.352563 0.451672,-0.188645 0.83156,0.319099 0.983705,0.663147 0.293258,0.663147 -0.24842,0 -0.583638,-0.213526 -0.74493,-0.474502 z m 34.738977,-3.327219 c -3.008371,-3.329201 -3.782376,-3.917322 -3.782376,-2.874001 0,0.895076 5.973624,7.096199 6.422376,6.666968 0.237355,-0.227026 -0.919114,-1.888559 -2.64,-3.792967 z M 53.279998,42.24 c 0,-0.264 -0.216,-0.48 -0.48,-0.48 -0.264,0 -0.48,0.216 -0.48,0.48 0,0.264 0.216,0.48 0.48,0.48 0.264,0 0.48,-0.216 0.48,-0.48 z M 75.12773,41.267485 c 0.167415,-0.270882 0.774164,-0.432882 1.34833,-0.36 1.769616,0.22463 1.61472,-0.777125 -0.276389,-1.787485 -0.988267,-0.528 -1.727429,-1.176 -1.642584,-1.44 0.08485,-0.264 1.066339,-0.703867 2.181106,-0.977482 1.114761,-0.273615 1.854705,-0.669615 1.644321,-0.88 C 78.17213,35.612133 77.998961,35.188 77.997689,34.88 c -0.0014,-0.308 -0.433268,-0.56 -0.96,-0.56 -0.526728,0 -1.227691,-0.174748 -1.557691,-0.388328 -0.33,-0.21358 -0.816,-0.254833 -1.08,-0.09167 -0.53378,0.329895 -0.63805,-0.709618 -0.188645,-1.880742 0.421128,-1.097438 1.057305,-0.93225 1.235261,0.320742 0.130425,0.918336 0.488659,1.101654 2.393212,1.224659 1.889453,0.12203 2.287522,-0.0056 2.54473,-0.81601 0.430857,-1.357513 -0.878079,-3.620936 -2.770272,-4.790377 C 76.729341,27.35135 74.912263,25.710496 73.576332,24.251934 71.912465,22.435331 70.781374,21.6 69.985442,21.6 c -0.639052,0 -2.365689,-0.724871 -3.836961,-1.610825 -1.925602,-1.159539 -2.892643,-1.489047 -3.451761,-1.176149 -1.331631,0.745218 -0.859258,2.175071 1.304246,3.947897 1.94471,1.593548 3.458621,3.934724 4.633757,7.165856 0.344884,0.948287 0.341097,1.946075 -0.01238,3.258741 -0.509314,1.891458 -0.508647,1.892847 2.514095,5.213583 3.134285,3.443276 3.48168,3.692936 3.991282,2.868382 z M 73.910369,39.5884 c -0.333946,-0.402379 -0.514215,-0.824556 -0.400603,-0.93817 0.113616,-0.113614 0.470227,0.215606 0.79247,0.731599 0.696869,1.115867 0.464462,1.238381 -0.391867,0.206571 z M 70.749588,28.429327 c -0.555725,-0.45613 -1.130054,-1.173729 -1.276286,-1.594666 -0.227045,-0.653559 0.09579,-0.732184 2.210409,-0.538333 1.361957,0.124853 2.53633,0.277299 2.609717,0.338769 0.07339,0.06147 -0.08327,0.681719 -0.34812,1.378333 -0.556118,1.462695 -1.733645,1.615941 -3.19572,0.415897 z M 73.439998,27.36 c 0,-0.264 -0.660749,-0.48 -1.46833,-0.48 -0.856656,0 -1.344749,0.199957 -1.17167,0.48 0.163161,0.264 0.82391,0.48 1.468329,0.48 0.644419,0 1.171671,-0.216 1.171671,-0.48 z M 37.242029,39.88387 c -1.102223,-1.150474 -1.287157,-1.678341 -1.051024,-3 0.214361,-1.199806 0.174434,-1.362017 -0.15849,-0.64387 -0.758353,1.635841 -0.5613,2.640628 0.757575,3.86292 1.761041,1.632077 2.078169,1.478368 0.451939,-0.21905 z m 15.769625,-1.169566 c -0.436397,-2.03616 -0.735893,-2.459382 -1.2042,-1.701648 -0.215899,0.349331 -0.18132,0.889655 0.07684,1.200721 0.258164,0.311065 0.436224,0.75031 0.395703,0.976098 -0.179295,0.998922 0.0811,1.641781 0.548102,1.353157 0.30205,-0.186677 0.376483,-0.928125 0.183552,-1.828328 z m 8.189938,0.163115 c 0.162283,-0.262581 0.120316,-0.470549 -0.09326,-0.462154 -0.535392,0.02105 -2.06833,1.217659 -2.06833,1.614539 0,0.418865 1.775515,-0.527694 2.161594,-1.152385 z M 30.479999,39.36 c -0.163161,-0.264 -0.620656,-0.48 -1.016656,-0.48 -0.396,0 -0.586505,0.216 -0.423344,0.48 0.163161,0.264 0.620656,0.48 1.016656,0.48 0.396,0 0.586505,-0.216 0.423344,-0.48 z m 26.333582,-0.72 c -0.151964,-0.396 -0.338074,-0.72 -0.413583,-0.72 -0.07551,0 -0.261619,0.324 -0.413582,0.72 -0.166608,0.434183 -0.0024,0.72 0.413582,0.72 0.416016,0 0.580191,-0.285817 0.413583,-0.72 z m 2.737972,-0.256888 c 1.177719,-0.630295 1.166208,-1.267232 -0.05922,-3.277246 -1.182869,-1.940217 -1.61354,-1.77984 -0.825672,0.307467 0.313488,0.830516 0.422947,1.657052 0.243254,1.836748 -0.389126,0.389128 -1.78992,-0.681179 -1.78992,-1.367628 0,-0.26455 0.328109,-0.207695 0.730987,0.126667 0.611208,0.507256 0.681447,0.47756 0.428645,-0.181227 -0.341266,-0.889334 -0.339038,-0.888462 -1.314413,-0.514174 -0.575985,0.221024 -0.606153,0.475139 -0.156729,1.32 1.326916,2.494428 1.337884,2.501423 2.743065,1.749393 z m 4.197231,-1.30225 C 63.659902,36.619336 63.266067,36.220236 62.87359,36.193973 62.481113,36.167707 61.914521,36.113322 61.614497,36.073111 61.314473,36.032901 60.92324,35.028 60.745088,33.84 c -0.332996,-2.220586 -0.892359,-2.759428 -1.424626,-1.372366 -0.359275,0.936267 0.761021,2.873074 2.527709,4.369982 1.529779,1.296177 2.117884,1.371445 1.900613,0.243246 z M 77.759997,37.44 c 0,-0.264 -0.216,-0.48 -0.48,-0.48 -0.264,0 -0.48,0.216 -0.48,0.48 0,0.264 0.216,0.48 0.48,0.48 0.264,0 0.48,-0.216 0.48,-0.48 z M 42.719999,36.975065 c 0,-0.255715 -0.324,-0.340605 -0.72,-0.188645 -0.396,0.151959 -0.72,0.36118 -0.72,0.464935 0,0.103755 0.324,0.188645 0.72,0.188645 0.396,0 0.72,-0.209221 0.72,-0.464935 z M 55.919998,36.96 c -0.163161,-0.264 -0.512654,-0.48 -0.776654,-0.48 -0.264,0 -0.346507,0.216 -0.183346,0.48 0.163162,0.264 0.512655,0.48 0.776655,0.48 0.264,0 0.346507,-0.216 0.183345,-0.48 z M 67.109542,35.154663 C 67.726851,34.035598 68.014299,33.12 67.748307,33.12 c -0.265988,0 -0.618941,0.426366 -0.784335,0.947479 -0.165393,0.521114 -0.827952,1.3622 -1.472347,1.869082 -1.374859,1.081463 -1.508126,1.638634 -0.33805,1.413297 0.458472,-0.08829 1.338653,-1.076131 1.955967,-2.195195 z m -22.549544,1.44309 c -0.088,-0.199236 -0.567345,-1.387236 -1.065211,-2.64 C 42.99692,32.704989 42.40292,31.68 42.174787,31.68 c -0.590321,0 -0.53656,0.258969 0.604321,2.911017 0.56051,1.30294 1.22651,2.368983 1.48,2.368983 0.253489,0 0.388891,-0.163011 0.30089,-0.362247 z m 3.44,-0.117753 c 0,-0.264 -0.537101,-0.48 -1.193558,-0.48 -0.918027,0 -1.361256,-0.401357 -1.92,-1.73862 -0.833593,-1.995068 -0.957917,-3.741096 -0.234549,-3.29403 0.270541,0.167203 0.460962,0.125951 0.423158,-0.09167 -0.0378,-0.217623 -0.02884,-0.503678 0.01993,-0.635678 0.118753,-0.321435 0.553447,-6.433574 0.643982,-9.054885 0.06771,-1.960459 -0.08975,-2.237666 -2.453883,-4.32 -1.613097,-1.42082 -2.760831,-2.91305 -3.175255,-4.128314 -0.356961,-1.04676 -0.887588,-1.982722 -1.179171,-2.079916 -2.007704,-0.6692346 -0.282375,6.419437 2.205266,9.060534 1.066716,1.132518 1.705833,2.35857 1.876612,3.6 0.142439,1.035419 0.59078,2.672811 0.996312,3.638649 0.677043,1.612477 0.668161,1.873165 -0.10862,3.188151 -0.805404,1.36344 -0.805898,1.532353 -0.01031,3.523932 0.459606,1.150517 1.058843,2.361849 1.331639,2.691849 0.589815,0.713496 2.778446,0.808022 2.778446,0.12 z m 3.36,0.05598 c 0,-0.233209 -0.486,-0.584631 -1.08,-0.780936 l -1.08,-0.356919 1.08,-0.212448 c 1.316976,-0.259065 1.404629,-0.937955 0.171624,-1.329296 -2.164684,-0.687044 -2.970901,-6.926378 -1.091625,-8.448124 1.296696,-1.05 1.337683,-1.88826 0.09233,-1.88826 -2.481704,0 -3.084886,5.671683 -0.982191,9.235485 0.749818,1.27085 0.864255,1.813128 0.438197,2.076448 -0.352209,0.217677 -0.451334,0.153609 -0.254669,-0.164602 0.332842,-0.538548 -0.526171,-1.354825 -0.964488,-0.916506 -0.450917,0.450916 0.837159,2.296709 1.902202,2.725825 1.384214,0.557713 1.768622,0.570609 1.768622,0.05933 z m 14.366337,-1.802208 c 0.94212,-1.197716 0.950501,-1.300771 0.154839,-1.904734 -1.254576,-0.952307 -2.000155,-0.80424 -2.602037,0.516744 -0.413121,0.906699 -0.396864,1.358591 0.06906,1.92 0.842515,1.015166 1.229164,0.928669 2.378135,-0.53201 z M 54.311662,30.403718 c 1.125312,-1.197841 2.764392,-1.4379 4.279891,-0.62683 0.69372,0.371268 0.930303,0.340931 0.935794,-0.12 0.0052,-0.433718 0.145512,-0.403101 0.472651,0.103112 0.393278,0.608558 0.466435,0.583793 0.472651,-0.16 0.0043,-0.498514 -0.252753,-0.788495 -0.592651,-0.668919 -0.33,0.116095 -1.116456,0.01986 -1.74768,-0.213852 -1.849685,-0.684852 -5.027438,0.776286 -5.965214,2.742819 -0.467693,0.980768 -0.590702,1.737041 -0.310675,1.910107 0.254961,0.157576 0.487233,0.759753 0.516163,1.338173 0.02894,0.57842 0.23952,0.09934 0.46799,-1.06461 0.228471,-1.163955 0.890458,-2.621955 1.47108,-3.24 z m 8.088336,3.783085 c 0,-0.469258 0.298315,-1.279258 0.662918,-1.8 0.548525,-0.783422 0.553628,-1.048837 0.02957,-1.538094 -0.688718,-0.643008 -0.795912,-0.443644 -1.41479,2.631291 -0.199344,0.99046 -0.124805,1.56 0.204163,1.56 C 62.16684,35.04 62.4,34.656061 62.4,34.186803 Z M 55.237894,33.54 c -0.111158,-0.363 -0.219158,-1.149963 -0.24,-1.748807 -0.03446,-0.990418 -0.09211,-1.014659 -0.637896,-0.268258 -1.015502,1.38878 -0.632534,3.315069 0.57,2.867065 0.280498,-0.1045 0.419055,-0.487 0.307896,-0.85 z m 2.842104,-2.828452 c -1.046453,-0.663987 -1.778184,-0.573452 -2.097845,0.259559 -0.236193,0.615514 -0.111504,0.642417 0.78865,0.170155 1.037217,-0.544174 1.044038,-0.532574 0.228149,0.387846 -1.149144,1.296364 -0.416122,1.862005 0.814377,0.628423 0.850579,-0.852704 0.887362,-1.052148 0.266669,-1.445983 z M 46.89093,29.869914 c -0.515465,-2.485817 -0.46606,-2.881692 0.995176,-7.974177 0.176504,-0.61512 0.05377,-0.835697 -0.383828,-0.68983 -1.494818,0.498273 -2.025401,8.813237 -0.699296,10.95892 0.596279,0.9648 0.622423,0.282584 0.08795,-2.294913 z M 50.689357,28.56 49.679998,27.12 49.536522,28.587005 c -0.07891,0.806853 0.101208,2.102853 0.400267,2.88 L 50.480533,32.88 51.089624,31.44 c 0.537792,-1.271428 0.490934,-1.608572 -0.400267,-2.88 z m 10.588535,2.52 c -0.133156,-0.33 -0.242107,-0.06 -0.242107,0.6 0,0.66 0.108951,0.93 0.242107,0.6 0.133157,-0.33 0.133157,-0.87 0,-1.2 z m 5.475845,0.24 c 0.02942,-0.732445 0.08027,-0.72116 0.397195,0.08814 0.543408,1.387646 1.149139,0.08233 0.767703,-1.654347 -0.371223,-1.690175 -0.703378,-1.953431 -2.027703,-1.607113 -0.998448,0.2611 -1.790961,2.380679 -1.05923,2.832915 0.210629,0.130175 0.473299,-0.360981 0.583709,-1.091457 0.162979,-1.078245 0.214281,-0.989463 0.272668,0.471862 0.07064,1.768062 0.999591,2.604908 1.065658,0.96 z m -0.475843,-1.84 c 0.02304,-0.559172 0.136771,-0.672912 0.289997,-0.29 0.138657,0.3465 0.121608,0.7605 -0.03787,0.92 -0.159504,0.1595 -0.272948,-0.124 -0.252106,-0.63 z m -30.277895,1.028328 c 0,-0.11642 -0.216,-0.345167 -0.48,-0.508328 -0.264,-0.163161 -0.48,-0.06791 -0.48,0.211672 0,0.27958 0.216,0.508328 0.48,0.508328 0.264,0 0.48,-0.09525 0.48,-0.211672 z m 7.104,-0.364328 c 0.718518,-0.718518 0.752267,-2.618404 0.05418,-3.049848 -0.890894,-0.550603 -1.635881,0.601068 -0.93506,1.445505 0.510725,0.615386 0.482987,0.740343 -0.164343,0.740343 -0.868818,0 -1.110796,-2.138143 -0.298773,-2.64 0.694288,-0.429094 0.58997,-4.226122 -0.143671,-5.229436 -0.91548,-1.251993 -3.407189,-0.876428 -3.608998,0.54397 -0.135386,0.952904 0.0062,1.042758 1.250923,0.793815 1.650325,-0.330065 2.335577,0.728364 1.492024,2.304556 -1.569585,2.932797 0.35315,7.091667 2.353722,5.091095 z m 9.13929,-2.714638 C 51.633387,26.731213 50.969144,25.9548 50.767189,25.704 c -0.765269,-0.950358 -0.337642,0.498583 0.601997,2.039759 0.531081,0.871067 1.194518,1.44228 1.474305,1.269361 0.320741,-0.198229 0.09897,-0.783416 -0.600202,-1.583758 z m 11.809123,0.751841 c -0.130598,-0.340339 -0.689376,-0.65284 -1.241731,-0.694447 -0.967037,-0.07285 -0.971021,-0.05047 -0.107481,0.603531 1.129022,0.855055 1.656071,0.890569 1.349212,0.09092 z m -3.8407,-0.321491 C 59.95855,27.606554 58.34935,27.040542 56.635712,26.601909 53.718603,25.85523 50.870686,24.48 52.241523,24.48 c 0.338323,0 0.481637,-0.216 0.318475,-0.48 -0.393302,-0.636379 -0.187449,-0.609615 1.845965,0.24 2.028461,0.847546 2.234035,0.870893 2.234035,0.253724 0,-0.256452 -0.702,-0.668971 -1.56,-0.91671 l -1.56,-0.450433 2.04,-0.04329 c 1.122,-0.02381 2.04,-0.244735 2.04,-0.490944 0,-0.24621 0.448277,-0.589932 0.996173,-0.763827 0.547896,-0.173895 0.898637,-0.413709 0.779429,-0.53292 -0.119213,-0.11921 -0.94549,0.104498 -1.836173,0.49713 -0.890688,0.392631 -2.43937,0.845542 -3.441518,1.006467 -2.56584,0.412024 -3.364959,2.151467 -1.768911,3.850382 0.984946,1.048429 1.404399,1.164356 3.31921,0.917361 1.205486,-0.155498 2.73179,-0.06336 3.39179,0.204743 1.555891,0.632038 1.728706,0.645021 1.171714,0.08803 z m 3.148286,-1.224314 c 0,-0.512931 -1.469424,-0.538309 -1.889102,-0.03263 -0.409181,0.493032 -0.263952,0.576897 0.684907,0.395512 0.662304,-0.12661 1.204195,-0.289908 1.204195,-0.362886 z m -2.315846,-1.511557 c 0.730368,-0.660972 1.103548,-0.700399 2.197795,-0.232199 1.236753,0.529173 1.259395,0.518201 0.367104,-0.177886 -0.932247,-0.727255 -4.198368,-0.793604 -4.449053,-0.09038 -0.515107,1.444983 0.532882,1.723349 1.884154,0.500465 z m 5.195846,0.63983 c 0,-0.08598 -0.576653,-0.679981 -1.281456,-1.32 L 63.677086,23.28 l 0.921456,1.304916 c 0.782568,1.108228 1.641456,1.72501 1.641456,1.178755 z M 53.999998,24.96 c -0.163161,-0.264 -0.512654,-0.48 -0.776654,-0.48 -0.264,0 -0.346507,0.216 -0.183346,0.48 0.163162,0.264 0.512655,0.48 0.776655,0.48 0.264,0 0.346507,-0.216 0.183345,-0.48 z m 6.24,-2.161324 c 0.835776,-0.337135 0.854558,-0.412615 0.145157,-0.583311 -1.131341,-0.272223 -2.785157,0.699178 -2.785157,1.635917 0,0.695314 0.0888,0.701242 0.84,0.05607 0.462,-0.396789 1.272,-0.895694 1.8,-1.108678 z m -10.411233,-1.59096 c -0.0916,-0.792862 -0.571493,-1.472174 -1.248797,-1.767716 -0.605014,-0.264 -1.226399,-0.981815 -1.380855,-1.595144 -0.198912,-0.789865 -0.430168,-0.965803 -0.792806,-0.603164 -0.362639,0.362639 -0.115867,0.925432 0.846003,1.929408 1.101549,1.149769 1.302184,1.696423 1.062492,2.894884 -0.274152,1.37077 -0.224789,1.439619 0.68362,0.953452 0.687154,-0.367753 0.934752,-0.907983 0.830343,-1.81172 z M 52.319998,22.32 c 0,-0.07551 -0.288,-0.247807 -0.639998,-0.382882 -0.352003,-0.135075 -0.640003,0.03722 -0.640003,0.382882 0,0.34566 0.288,0.517957 0.640003,0.382882 0.351998,-0.135075 0.639998,-0.307372 0.639998,-0.382882 z m 10.08,0.24 c 0,-0.264 -0.09525,-0.48 -0.21167,-0.48 -0.11642,0 -0.345168,0.216 -0.50833,0.48 -0.163162,0.264 -0.06791,0.48 0.21167,0.48 0.279581,0 0.50833,-0.216 0.50833,-0.48 z m -6.590865,-0.79485 c -0.324975,-0.131483 -0.972975,-0.139486 -1.44,-0.01778 -0.467026,0.121701 -0.201135,0.229278 0.590865,0.23906 0.792,0.0098 1.174109,-0.08979 0.849135,-0.221274 z m -2.917978,-3.640119 c 0.466598,-1.557375 0.642384,-1.751067 0.928469,-1.023059 0.243969,0.620826 0.361046,0.675779 0.379286,0.178028 0.0145,-0.396 -0.171465,-1.032734 -0.41328,-1.414966 -0.344784,-0.544982 -0.509813,-0.415494 -0.764688,0.6 C 52.842185,17.177266 52.528525,17.76 52.32392,17.76 c -0.635751,0 -0.883886,-2.486335 -0.389635,-3.904149 0.434347,-1.245968 2.960644,-3.261577 4.352764,-3.472856 2.084995,-0.316435 2.247,-1.8687459 0.20436,-1.9581636 -0.936878,-0.041011 -1.860201,0.5186452 -3.33359,2.0206046 -1.911782,1.948844 -2.036213,2.241365 -2.01179,4.72954 0.0167,1.700955 0.261317,2.797631 0.682046,3.057654 0.539966,0.333718 0.499306,0.646195 -0.229862,1.766405 -0.742157,1.140171 -0.755823,1.254387 -0.08425,0.704024 0.440895,-0.361318 1.060632,-1.52143 1.377197,-2.578028 z m 8.455291,1.414343 c -0.09161,-0.622238 -0.65016,-1.128629 -1.491557,-1.352264 -1.152456,-0.306311 -1.410264,-0.186153 -1.8,0.838935 -0.686596,1.805884 -0.60898,1.894019 1.491557,1.6937 1.649784,-0.157332 1.924128,-0.337236 1.8,-1.180371 z m -3.859512,-2.43062 c 0.462264,-2.2803 0.09289,-2.640452 -1.582315,-1.542815 -0.794342,0.520471 -1.184621,1.220605 -1.184621,2.125126 0,1.648999 0.268935,1.954255 1.449682,1.645483 0.616445,-0.161204 1.045373,-0.886625 1.317254,-2.227794 z M 62.215712,15.93 c -0.671266,-0.671267 -0.775714,-0.677845 -0.775714,-0.04886 0,0.986164 1.123171,2.109337 1.369714,1.369714 0.09995,-0.299828 -0.167357,-0.894214 -0.594,-1.320857 z m -2.215714,0.87 c 0,-0.264 -0.432,-0.48 -0.96,-0.48 -0.528,0 -0.96,0.216 -0.96,0.48 0,0.264 0.432,0.48 0.96,0.48 0.528,0 0.96,-0.216 0.96,-0.48 z M 48.210709,11.3352 48.547434,6.590399 47.433717,6.8713258 C 46.363193,7.141357 46.356135,7.1252539 47.251741,6.4561262 47.996397,5.8997765 48.032293,5.76 47.430514,5.76 c -1.294223,0 -2.049738,1.321943 -1.449578,2.5363627 0.289104,0.5850005 0.67024,2.4676373 0.84697,4.1836373 0.297478,2.888433 0.599938,4.125754 0.917151,3.751935 0.07091,-0.08356 0.280453,-2.287095 0.465652,-4.896735 z M 60.719998,15.36 c -0.163162,-0.264 -0.595162,-0.48 -0.96,-0.48 -0.364838,0 -0.796838,0.216 -0.96,0.48 -0.168917,0.273312 0.244459,0.48 0.96,0.48 0.715541,0 1.128917,-0.206688 0.96,-0.48 z m -4.56,-2.59571 c 0,-0.613777 -1.333272,-0.237813 -2.079053,0.586264 -0.587198,0.648848 -0.649243,1.009149 -0.243628,1.414766 0.405619,0.405618 0.770678,0.256313 1.433448,-0.586263 0.489076,-0.621763 0.889233,-1.258407 0.889233,-1.414767 z M 71.89254,12.117573 C 69.026643,9.0458722 64.016998,8.2496683 61.759568,10.507098 60.90104,11.365626 60.868337,11.52 61.545003,11.52 c 0.439085,0 0.931833,-0.216 1.094995,-0.48 0.452059,-0.731445 3.949238,-0.572271 5.543837,0.252326 1.556188,0.804738 1.901366,1.324773 0.576163,0.868034 -0.682229,-0.235135 -0.659693,-0.145019 0.12,0.479799 1.153953,0.924738 1.874558,1.02938 1.376188,0.199841 -0.238512,-0.397007 -0.08178,-0.373865 0.463272,0.0684 0.453058,0.36762 0.712392,0.779747 0.576303,0.915836 -0.13609,0.136089 0.0089,0.556299 0.322195,0.933798 0.480259,0.578674 0.632194,0.517241 0.968376,-0.39155 0.303346,-0.820023 0.137357,-1.358073 -0.693792,-2.248911 z m -11.172542,2.025092 c -1.668072,-0.763798 -3.062587,-0.921829 -2.376,-0.269256 0.487339,0.463197 1.918046,0.884611 3.096,0.911925 0.396,0.0092 0.072,-0.280018 -0.72,-0.642669 z M 52.80536,8.8005562 C 54.4748,6.8991686 54.209144,5.9885088 52.136768,6.508643 50.500962,6.9192034 50.088824,7.7292778 49.70925,11.28 l -0.307868,2.88 0.947597,-1.820517 c 0.521179,-1.001285 1.626552,-2.5938016 2.456381,-3.5389268 z m 11.514638,4.6766688 c 0,-0.495384 -2.170013,-1.261245 -4.981661,-1.758172 -1.429915,-0.252722 -1.812868,-0.182638 -1.651257,0.302194 0.353304,1.059916 6.632918,2.43834 6.632918,1.455978 z m 1.569134,-2.272075 c -0.324974,-0.131483 -0.972974,-0.139486 -1.44,-0.01778 -0.467025,0.121701 -0.201134,0.229278 0.590866,0.23906 0.792,0.0098 1.174109,-0.08979 0.849134,-0.221274 z M 43.439999,10.08 c -0.163162,-0.264 -0.05516,-0.48 0.24,-0.48 0.295161,0 0.417149,-0.1933666 0.271085,-0.4297032 -0.146065,-0.2363371 0.0881,-0.5654213 0.520373,-0.7312987 1.059758,-0.4066675 0.386564,-0.9908938 -1.191289,-1.0338509 -1.773111,-0.048274 -2.1463,0.777431 -0.934405,2.0674334 1.064889,1.1335234 1.60452,1.4330764 1.094236,0.6074194 z M 64.559998,8.6057822 c 1.176787,-0.2839944 1.238237,-0.356496 0.336163,-0.3966489 -1.067275,-0.047506 -3.936163,1.162451 -3.936163,1.6600814 0,0.1345093 0.486,-0.016546 1.08,-0.3356779 0.594,-0.3191318 1.728,-0.7366214 2.52,-0.9277546 z"
     id="path3763"
     inkscape:connector-curvature="0" />
</svg>
